<?xml version="1.0" encoding="UTF-8"?>
<svg width="16" height="16" version="1.1" viewBox="0 0 16 16" xml:space="preserve" xmlns="http://www.w3.org/2000/svg">
    <g transform="matrix(-1.2 0 0 .66667 17.6 .33333)" fill="#afb1b3">
        <g stroke-width=".91287">
            <path d="m8 17.5c-2.75 0-5-1.3-5-2.1v3.0053c0 0.8 2.25 2.0947 5 2.0947s5-1.2947 5-2.0947v-3.0053c0 0.8-2.25 2.1-5 2.1z"/>
            <path d="m8 13c-2.75 0-5-1.3-5-2.1v3.0053c0 0.8 2.25 2.0947 5 2.0947 2.75 0 5-1.2947 5-2.0947v-3.0053c0 0.8-2.25 2.1-5 2.1z"/>
            <path d="m8 8.5c-2.75 0-5-1.3-5-2.1v3.0053c0 0.8 2.25 2.0947 5 2.0947s5-1.2947 5-2.0947v-3.0053c0 0.8-2.25 2.1-5 2.1z"/>
        </g>
        <path d="m13 4.75c0 1.242-2.2383 2.25-5 2.25-2.7617 0-5-1.008-5-2.25s2.2383-2.25 5-2.25c2.7617 0 5 1.008 5 2.25z" stroke-width="1.118"/>
    </g>
    <polygon transform="matrix(.88931 0 0 .89848 1.7749 2.1689)" points="13.75 7.603 13.705 10.227 16 11.5 13.705 12.773 13.75 15.397 11.5 14.046 9.25 15.397 9.295 12.773 7 11.5 9.295 10.227 9.25 7.603 11.5 8.954" fill="#e27654" fill-rule="evenodd"/>
</svg>
