<?xml version="1.0" encoding="UTF-8"?>
<svg width="16" height="16" version="1.1" viewBox="0 0 16 16" xml:space="preserve" xmlns="http://www.w3.org/2000/svg">
    <g transform="matrix(-1.2 0 0 .66667 19.6 -.66667)" fill="#afb1b3">
        <g stroke-width=".91287">
            <path d="m6.3314 17.349c-0.97239-0.21136-1.9495-0.52541-2.7543-1.1292-0.25786-0.21042-0.55093-0.4645-0.57713-0.81959 0.00109 1.0144-0.00219 2.0288 0.00164 3.0432 0.056357 0.36137 0.36087 0.61236 0.6334 0.82435 0.79627 0.56971 1.7448 0.88215 2.6959 1.0771 0.00183-0.99859 0.00289-1.9972 4.627e-4 -2.9958z"/>
            <path d="m6.3314 12.841c-0.94127-0.18521-1.8754-0.50095-2.6665-1.0551-0.276-0.20979-0.57702-0.4547-0.65838-0.809-0.011697-0.16519-0.0045774 0.063884-0.0065384 0.12068 0.00109 0.94868-0.00219 1.8975 0.00164 2.8461 0.058705 0.36968 0.37099 0.62501 0.65768 0.83199 0.7874 0.5741 1.7394 0.84232 2.6721 1.0743 0.00188-1.003 0.00186-2.006 0-3.0089z"/>
            <path d="m6.331 8.3439c-1.0591-0.19008-1.9821-0.61803-2.9364-1.2783-0.25391-0.23438-0.39453-0.46562-0.39453-0.66562v3.0053c0 0.2 0.14062 0.43092 0.39453 0.6648 0.25391 0.23388 0.62109 0.47071 1.0742 0.68255 0.45312 0.21184 0.99219 0.39867 1.5898 0.53255 0.074707 0.01673 0.1959 0.04436 0.27239 0.05939 0.00235-2.2446 0.00235-1.9446 0-3.0007z"/>
        </g>
        <path d="m13 4.75c0 1.242-2.2383 2.25-5 2.25-2.7617 0-5-1.008-5-2.25s2.2383-2.25 5-2.25c2.7617 0 5 1.008 5 2.25z" stroke-width="1.118"/>
    </g>
    <g transform="matrix(-1.2 0 0 .66667 15.6 1.3333)" fill="#5f8dd3" stroke-width=".91287">
        <path d="m13 4.7502c0 1.2419-2.2383 2.2498-5 2.2498s-5-1.0079-5-2.2498 2.2383-2.2498 5-2.2498 5 1.0079 5 2.2498z" stroke-width="1.1179"/>
        <path d="m8 8.5c-2.75 0-5-1.3-5-2.1v3.0053c0 0.8 2.25 2.0947 5 2.0947s5-1.2947 5-2.0947v-3.0053c0 0.8-2.25 2.1-5 2.1z"/>
        <path d="m8 13c-2.75 0-5-1.3-5-2.1v3.0053c0 0.8 2.25 2.0947 5 2.0947s5-1.2947 5-2.0947v-3.0053c0 0.8-2.25 2.1-5 2.1z"/>
        <path d="m8 17.5c-2.75 0-5-1.3-5-2.1v3.0053c0 0.8 2.25 2.0947 5 2.0947s5-1.2947 5-2.0947v-3.0053c0 0.8-2.25 2.1-5 2.1z"/>
    </g>
</svg>
