<?xml version="1.0" encoding="UTF-8"?>
<svg width="16" height="16" version="1.1" viewBox="0 0 16 16" xml:space="preserve" xmlns="http://www.w3.org/2000/svg">
    <g transform="matrix(-1.2 0 0 .66667 17.6 .33333)" fill="#afb1b3">
        <g stroke-width=".91287">
            <path d="m8 17.5c-2.75 0-5-1.3-5-2.1v3.0053c0 0.8 2.25 2.0947 5 2.0947s5-1.2947 5-2.0947v-3.0053c0 0.8-2.25 2.1-5 2.1z"/>
            <path d="m8 13c-2.75 0-5-1.3-5-2.1v3.0053c0 0.8 2.25 2.0947 5 2.0947 2.75 0 5-1.2947 5-2.0947v-3.0053c0 0.8-2.25 2.1-5 2.1z"/>
            <path d="m8 8.5c-2.75 0-5-1.3-5-2.1v3.0053c0 0.8 2.25 2.0947 5 2.0947s5-1.2947 5-2.0947v-3.0053c0 0.8-2.25 2.1-5 2.1z"/>
        </g>
        <path d="m13 4.75c0 1.242-2.2383 2.25-5 2.25-2.7617 0-5-1.008-5-2.25s2.2383-2.25 5-2.25c2.7617 0 5 1.008 5 2.25z" stroke-width="1.118"/>
    </g>
    <g transform="translate(0 -.00056313)" fill-rule="evenodd">
        <path d="m16 12.5c0 1.933-1.567 3.5-3.5 3.5s-3.5-1.567-3.5-3.5 1.567-3.5 3.5-3.5 3.5 1.567 3.5 3.5" fill="#e05555"/>
        <path d="m13 14v1h-1v-1zm0-4v3h-1v-3z" fill="#fff"/>
    </g>
</svg>
