<?xml version="1.0" encoding="UTF-8"?>
<svg width="16" height="16" version="1.1" viewBox="0 0 16 16" xml:space="preserve" xmlns="http://www.w3.org/2000/svg">
    <g transform="matrix(-1.2 0 0 .66667 17.6 .335)" fill="#afb1b3" fill-opacity=".60104">
        <path d="m8 8.5c-2.75 0-5-1.3-5-2.1v3.0053c0 0.8 2.25 2.0947 5 2.0947s5-1.2947 5-2.0947v-3.0053c0 0.8-2.25 2.1-5 2.1z" stroke-width=".91287"/>
        <path d="m8 12.998c-2.75 0-5-1.3-5-2.1v3.0053c0 0.8 2.25 2.0947 5 2.0947s5-1.2947 5-2.0947v-3.0053c0 0.8-2.25 2.1-5 2.1z" stroke-width=".91287"/>
        <path d="m13 4.75c0 1.242-2.2383 2.25-5 2.25-2.7617 0-5-1.008-5-2.25s2.2383-2.25 5-2.25c2.7617 0 5 1.008 5 2.25z" stroke-width="1.118"/>
        <path d="m8 17.498c-2.75 0-5-1.3-5-2.1v3.0053c0 0.8 2.25 2.0947 5 2.0947s5-1.2947 5-2.0947v-3.0053c0 0.8-2.25 2.1-5 2.1z" stroke-width=".91287"/>
    </g>
</svg>
