<?xml version="1.0" encoding="UTF-8"?>
<svg width="16" height="16" version="1.1" viewBox="0 0 16 16" xml:space="preserve" xmlns="http://www.w3.org/2000/svg">
    <g transform="matrix(-1.2 0 0 .66667 17.6 .33331)" fill="#5f8dd3" stroke-width=".91287">
        <path d="m13 4.7502c0 1.2419-2.2383 2.2498-5 2.2498s-5-1.0079-5-2.2498c0-1.2419 2.2383-2.2498 5-2.2498s5 1.0079 5 2.2498z" stroke-width="1.1179"/>
        <path d="m8 8.5c-2.75 0-5-1.3-5-2.1v3.0053c0 0.8 2.25 2.0947 5 2.0947s5-1.2947 5-2.0947v-3.0053c0 0.8-2.25 2.1-5 2.1z"/>
        <path d="m8 13c-2.75 0-5-1.3-5-2.1v3.0053c0 0.8 2.25 2.0947 5 2.0947 2.75 0 5-1.2947 5-2.0947v-3.0053c0 0.8-2.25 2.1-5 2.1z"/>
        <path d="m8 17.5c-2.75 0-5-1.3-5-2.1v3.0053c0 0.8 2.25 2.0947 5 2.0947 2.75 0 5-1.2947 5-2.0947v-3.0053c0 0.8-2.25 2.1-5 2.1z"/>
    </g>
    <ellipse cx="13" cy="13" rx="3" ry="2.9997" fill="#0cf53a" stroke-width="1.1999"/>
</svg>
