<?xml version="1.0" encoding="UTF-8" standalone="no"?>
<!-- Created with Inkscape (http://www.inkscape.org/) -->

<svg
        width="36"
        height="36"
        viewBox="0 0 36 36"
        version="1.1"
        id="svg5"
        xml:space="preserve"
        sodipodi:docname="pluginIcon.svg"
        inkscape:version="1.2-alpha1 (7fa1c12520, 2022-03-30, custom)"
        xmlns:inkscape="http://www.inkscape.org/namespaces/inkscape"
        xmlns:sodipodi="http://sodipodi.sourceforge.net/DTD/sodipodi-0.dtd"
        xmlns:xlink="http://www.w3.org/1999/xlink"
        xmlns="http://www.w3.org/2000/svg"
><sodipodi:namedview
     id="namedview7"
     pagecolor="#ffffff"
     bordercolor="#000000"
     borderopacity="0.25"
     inkscape:pageshadow="2"
     inkscape:pageopacity="0.0"
     inkscape:pagecheckerboard="0"
     inkscape:deskcolor="#d1d1d1"
     inkscape:document-units="px"
     showgrid="true"
     inkscape:zoom="20.70196"
     inkscape:cx="13.1147"
     inkscape:cy="21.495549"
     inkscape:window-width="2560"
     inkscape:window-height="1369"
     inkscape:window-x="-8"
     inkscape:window-y="-8"
     inkscape:window-maximized="1"
     inkscape:current-layer="layer2"><inkscape:grid
       type="xygrid"
       id="grid713"
       originx="0"
       originy="0" /></sodipodi:namedview><defs
     id="defs2"><linearGradient
       inkscape:collect="always"
       id="linearGradient3829"><stop
         style="stop-color:#b0b0b0;stop-opacity:0.18834084;"
         offset="0"
         id="stop3825" /><stop
         style="stop-color:#adadad;stop-opacity:1;"
         offset="1"
         id="stop3827" /></linearGradient><linearGradient
       inkscape:collect="always"
       id="linearGradient3821"><stop
         style="stop-color:#b3f0ff;stop-opacity:1;"
         offset="0"
         id="stop3817" /><stop
         style="stop-color:#4251ff;stop-opacity:1;"
         offset="1"
         id="stop3819" /></linearGradient><linearGradient
       id="linearGradient3813"
       inkscape:swatch="solid"><stop
         style="stop-color:#525aff;stop-opacity:1;"
         offset="0"
         id="stop3811" /></linearGradient><linearGradient
       inkscape:collect="always"
       id="linearGradient1793"><stop
         style="stop-color:#e7b43e;stop-opacity:1;"
         offset="0.24595375"
         id="stop1789" /><stop
         style="stop-color:#c46b23;stop-opacity:1;"
         offset="1"
         id="stop1791" /></linearGradient><radialGradient
       inkscape:collect="always"
       xlink:href="#linearGradient1793"
       id="radialGradient1795"
       cx="85.201859"
       cy="119.48863"
       fx="85.201859"
       fy="119.48863"
       r="30.989679"
       gradientTransform="matrix(0.29723412,0,0,0.29555148,46.664835,43.161817)"
       gradientUnits="userSpaceOnUse" /><linearGradient
       inkscape:collect="always"
       xlink:href="#linearGradient3821"
       id="linearGradient3823"
       x1="17.067917"
       y1="97.485809"
       x2="75.719307"
       y2="97.485809"
       gradientUnits="userSpaceOnUse"
       gradientTransform="matrix(0.38277247,0,0,0.35364093,44.05459,40.269879)" /><linearGradient
       inkscape:collect="always"
       xlink:href="#linearGradient3829"
       id="linearGradient3831"
       x1="64.820946"
       y1="85.956795"
       x2="127.20277"
       y2="85.956795"
       gradientUnits="userSpaceOnUse"
       gradientTransform="matrix(0.29723412,0,0,0.28291274,44.777481,42.893969)" /></defs><g
     inkscape:groupmode="layer"
     id="layer3"
     inkscape:label="Layer 3"
     transform="translate(-48.586509,-53.635997)"><path
       fill="#6e6e6e"
       fill-rule="evenodd"
       d="M 82.586509,63.904741 H 73.315474 V 55.635997 H 64.0445 v 23.152495 h 18.542009 z m -7.918407,-8.268744 -0.03416,7.048315 7.952563,-0.136627 z m 4.209984,11.576241 v 1.630311 l -11.125221,-0.03416 v -1.596153 z m 0,3.307503 v 1.527844 l -11.091064,0.03416 -0.03416,-1.562 z m 0,3.3075 v 1.653758 H 67.752865 v -1.653758 z"
       id="path864"
       style="fill:url(#linearGradient3831);fill-opacity:1;stroke-width:1.75113"
       sodipodi:nodetypes="cccccccccccccccccccccccccc" /></g><g
     inkscape:label="Layer 1"
     inkscape:groupmode="layer"
     id="layer1"
     transform="translate(-48.586509,-53.635997)"><g
       id="g537"
       transform="matrix(0.8,0,0,0.8,10.117302,11.127199)"><path
         fill="#40b6e0"
         fill-opacity="0.7"
         fill-rule="evenodd"
         d="m 50.587744,65.978767 c 2.137557,2.257668 6.991945,3.01816 11.211229,2.994174 4.053111,-0.02326 9.727625,-0.877064 11.238914,-3.167484 l -0.0289,5.469868 c -0.01125,2.129058 -5.019453,3.855012 -11.211239,3.855012 -6.191804,0 -11.211735,-1.72594 -11.211239,-3.855012 z m 22.422456,6.58546 v 5.581229 c 0,2.025263 -5.019437,3.667011 -11.211227,3.667011 -6.191796,0 -11.211229,-1.641748 -11.211229,-3.667011 v -5.430661 c 2.121111,2.419916 7.296367,3.093607 11.23889,3.068027 3.997783,-0.02638 9.201844,-0.749224 11.183566,-3.218595 z m 0,7.068394 v 5.263891 c 0,2.129083 -5.019437,3.855015 -11.211227,3.855015 -6.191796,0 -11.211229,-1.725932 -11.211229,-3.855015 v -5.295121 c 2.175417,2.137023 6.576855,2.889071 11.211229,2.889071 4.634362,0 9.008111,-0.771964 11.211227,-2.857841 z M 61.798973,68.448272 c -6.191796,0 -11.211229,-1.725931 -11.211229,-3.855087 0,-2.129083 5.019433,-3.855017 11.211229,-3.855017 6.19179,0 11.211227,1.725934 11.211227,3.855017 0,2.129156 -5.019437,3.855087 -11.211227,3.855087 z"
         id="path176"
         style="fill:url(#linearGradient3823);fill-opacity:1;stroke-width:2.00812;stroke-dasharray:none"
         sodipodi:nodetypes="cscsssccssscsccssscscsssss" /><ellipse
         style="fill:#dae8ff;fill-opacity:1;stroke-width:27.7829"
         id="path942"
         cx="61.812199"
         cy="64.460464"
         rx="9.2382717"
         ry="2.7460842" /></g></g><g
     inkscape:groupmode="layer"
     id="layer2"
     inkscape:label="Layer 2"
     transform="translate(-48.586509,-53.635997)"><path
       fill="#6e6e6e"
       fill-rule="evenodd"
       d="m 78.999844,79.802705 2.201093,1.494456 c -0.423612,1.239892 -1.119007,2.364094 -2.019727,3.309781 l -2.468158,-1.053691 c -0.702488,0.585778 -1.527527,1.043049 -2.434031,1.332928 l -0.268832,2.550013 c -0.651635,0.131057 -1.327496,0.199805 -2.02036,0.199805 -0.692876,0 -1.368747,-0.06871 -2.020369,-0.199805 l -0.268867,-2.550013 c -0.906519,-0.289729 -1.731557,-0.74715 -2.434031,-1.332928 l -2.468198,1.053691 c -0.900663,-0.945687 -1.596067,-2.069889 -2.019679,-3.309781 l 2.201092,-1.494456 c -0.09005,-0.428728 -0.137296,-0.872092 -0.137296,-1.325843 0,-0.453751 0.04726,-0.897113 0.137296,-1.325838 l -2.201092,-1.494463 c 0.423612,-1.239883 1.119016,-2.364088 2.019723,-3.309788 l 2.468169,1.0537 c 0.702471,-0.585778 1.527522,-1.043053 2.434029,-1.332932 l 0.26883,-2.550001 c 0.651627,-0.131057 1.327496,-0.199771 2.020371,-0.199771 0.692871,0 1.36873,0.06871 2.020364,0.199771 l 0.26883,2.550001 c 0.906513,0.289729 1.731555,0.747154 2.43404,1.332932 l 2.468161,-1.0537 c 0.900721,0.9457 1.59611,2.069905 2.019727,3.309788 l -2.201096,1.494463 c 0.09005,0.428725 0.137258,0.872087 0.137258,1.325838 0,0.453751 -0.04732,0.897115 -0.137258,1.325843 z m -7.010118,1.466551 c 1.547216,-0.03977 2.992743,-1.077766 2.952935,-2.642428 -0.04612,-1.810441 -1.340833,-2.962222 -2.952935,-2.941772 -1.719388,0.02252 -2.952919,1.124766 -2.952919,2.792079 0,1.626449 1.534423,2.828477 2.952919,2.792121 z"
       id="path9"
       style="display:inline;fill:url(#radialGradient1795);fill-opacity:1;stroke-width:1.44852"
       sodipodi:nodetypes="scccccsccccccsccccccsccccccscssssss" /></g></svg>
