<?xml version="1.0" encoding="UTF-8" standalone="no"?>
<!-- Created with Inkscape (http://www.inkscape.org/) -->

<svg
        width="10.148852mm"
        height="10.404845mm"
        viewBox="0 0 10.148852 10.404845"
        version="1.1"
        id="svg5"
        xml:space="preserve"
        sodipodi:docname="pluginIcon.svg"
        inkscape:version="1.2-alpha1 (7fa1c12520, 2022-03-30, custom)"
        xmlns:inkscape="http://www.inkscape.org/namespaces/inkscape"
        xmlns:sodipodi="http://sodipodi.sourceforge.net/DTD/sodipodi-0.dtd"
        xmlns:xlink="http://www.w3.org/1999/xlink"
        xmlns="http://www.w3.org/2000/svg"
><sodipodi:namedview
     id="namedview7"
     pagecolor="#ffffff"
     bordercolor="#000000"
     borderopacity="0.25"
     inkscape:pageshadow="2"
     inkscape:pageopacity="0.0"
     inkscape:pagecheckerboard="0"
     inkscape:deskcolor="#d1d1d1"
     inkscape:document-units="mm"
     showgrid="false"
     inkscape:zoom="10.35098"
     inkscape:cx="64.969695"
     inkscape:cy="47.290209"
     inkscape:window-width="1350"
     inkscape:window-height="1230"
     inkscape:window-x="1783"
     inkscape:window-y="211"
     inkscape:window-maximized="0"
     inkscape:current-layer="layer1" /><defs
     id="defs2"><linearGradient
       inkscape:collect="always"
       id="linearGradient3829"><stop
         style="stop-color:#b0b0b0;stop-opacity:0.18834084;"
         offset="0"
         id="stop3825" /><stop
         style="stop-color:#adadad;stop-opacity:1;"
         offset="1"
         id="stop3827" /></linearGradient><linearGradient
       inkscape:collect="always"
       id="linearGradient3821"><stop
         style="stop-color:#7fe3ff;stop-opacity:1;"
         offset="0"
         id="stop3817" /><stop
         style="stop-color:#4251ff;stop-opacity:1;"
         offset="1"
         id="stop3819" /></linearGradient><linearGradient
       id="linearGradient3813"
       inkscape:swatch="solid"><stop
         style="stop-color:#525aff;stop-opacity:1;"
         offset="0"
         id="stop3811" /></linearGradient><linearGradient
       inkscape:collect="always"
       id="linearGradient1793"><stop
         style="stop-color:#e7b43e;stop-opacity:1;"
         offset="0.24595375"
         id="stop1789" /><stop
         style="stop-color:#c46b23;stop-opacity:1;"
         offset="1"
         id="stop1791" /></linearGradient><radialGradient
       inkscape:collect="always"
       xlink:href="#linearGradient1793"
       id="radialGradient1795"
       cx="85.201859"
       cy="119.48863"
       fx="85.201859"
       fy="119.48863"
       r="30.989679"
       gradientTransform="matrix(0.08619688,0,0,0.08925264,30.168804,45.86896)"
       gradientUnits="userSpaceOnUse" /><linearGradient
       inkscape:collect="always"
       xlink:href="#linearGradient3821"
       id="linearGradient3823"
       x1="17.067917"
       y1="97.485809"
       x2="75.719307"
       y2="97.485809"
       gradientUnits="userSpaceOnUse"
       gradientTransform="matrix(0.08880219,0,0,0.08543591,29.737699,45.923704)" /><linearGradient
       inkscape:collect="always"
       xlink:href="#linearGradient3829"
       id="linearGradient3831"
       x1="64.820946"
       y1="85.956795"
       x2="127.20277"
       y2="85.956795"
       gradientUnits="userSpaceOnUse"
       gradientTransform="matrix(0.08619688,0,0,0.08543591,29.568488,45.788073)" /></defs><g
     inkscape:groupmode="layer"
     id="layer3"
     inkscape:label="Layer 3"
     transform="translate(-30.793102,-49.303702)"><path
       fill="#6e6e6e"
       fill-rule="evenodd"
       d="m 40.532975,52.133048 h -2.688569 v -2.497051 h -2.688551 v 6.991748 h 5.37712 z m -2.15084,-2.497051 v 1.997641 h 2.15084 z m 1.075409,3.495872 v 0.49941 h -3.226276 v -0.49941 z m 0,0.998822 v 0.499412 h -3.226276 v -0.499412 z m 0,0.998821 v 0.499414 h -3.226276 v -0.499414 z"
       id="path864"
       style="fill:url(#linearGradient3831);fill-opacity:1;stroke-width:0.518208" /></g><g
     inkscape:label="Layer 1"
     inkscape:groupmode="layer"
     id="layer1"
     transform="translate(-30.793102,-49.303702)"><path
       fill="#40b6e0"
       fill-opacity="0.7"
       fill-rule="evenodd"
       d="m 31.253369,52.099691 c 0.453332,0.584225 1.622113,0.764165 2.600975,0.75837 0.940313,-0.0056 2.256783,-0.223559 2.607396,-0.7769 l -0.0066,1.333132 c -0.0025,0.514358 -1.164496,0.93133 -2.600977,0.93133 -1.43648,0 -2.600976,-0.416968 -2.600976,-0.93133 z m 5.201949,1.614317 v 1.360036 c 0,0.489282 -1.164495,0.885911 -2.600974,0.885911 -1.436478,0 -2.600975,-0.396629 -2.600975,-0.885911 v -1.33533 c 0.492096,0.584626 1.692739,0.770722 2.607393,0.764543 0.927476,-0.0063 2.134803,-0.192675 2.594556,-0.789249 z m 0,1.719319 v 1.271701 c 0,0.514364 -1.164495,0.931331 -2.600974,0.931331 -1.436478,0 -2.600975,-0.416967 -2.600975,-0.931331 v -1.302586 c 0.504691,0.516283 1.525813,0.721309 2.600975,0.721309 1.075161,0 2.089861,-0.186497 2.600974,-0.690424 z m -2.600974,-2.702019 c -1.436478,0 -2.600975,-0.416968 -2.600975,-0.931349 0,-0.514365 1.164497,-0.931332 2.600975,-0.931332 1.436479,0 2.600974,0.416967 2.600974,0.931332 0,0.514381 -1.164495,0.931349 -2.600974,0.931349 z"
       id="path176"
       style="fill:url(#linearGradient3823);fill-opacity:1;stroke-width:0.475407;stroke-dasharray:none"
       sodipodi:nodetypes="cscsssccssscsccssscscsssss" /></g><g
     inkscape:groupmode="layer"
     id="layer2"
     inkscape:label="Layer 2"
     transform="translate(-30.793102,-49.303702)"><path
       fill="#6e6e6e"
       fill-rule="evenodd"
       d="m 39.545847,56.934023 0.638308,0.451307 c -0.122846,0.37443 -0.324506,0.713925 -0.585713,0.99951 l -0.71576,-0.318202 c -0.203717,0.176898 -0.442974,0.314988 -0.70586,0.402527 l -0.07797,0.770071 c -0.188973,0.03958 -0.384969,0.06034 -0.585899,0.06034 -0.200931,0 -0.396933,-0.02075 -0.585903,-0.06034 l -0.07797,-0.770071 c -0.262888,-0.0875 -0.502144,-0.225629 -0.70586,-0.402527 l -0.715761,0.318202 c -0.261193,-0.285585 -0.462856,-0.62508 -0.585703,-0.99951 l 0.638312,-0.451307 c -0.02611,-0.129469 -0.03981,-0.26336 -0.03981,-0.400387 0,-0.137026 0.0137,-0.270916 0.03981,-0.400386 l -0.638312,-0.451307 c 0.122847,-0.374429 0.32451,-0.713924 0.585715,-0.999513 l 0.715762,0.318204 c 0.203716,-0.176897 0.442976,-0.314988 0.70586,-0.402528 l 0.07797,-0.770067 c 0.188969,-0.03958 0.384971,-0.06033 0.585898,-0.06033 0.200933,0 0.396929,0.02075 0.585902,0.06033 l 0.07797,0.770067 c 0.262885,0.0875 0.502144,0.225631 0.705863,0.402528 l 0.715761,-0.318204 c 0.261204,0.285589 0.462865,0.625084 0.585712,0.999513 L 39.54586,56.13325 c 0.02611,0.12947 0.0398,0.26336 0.0398,0.400386 0,0.137027 -0.01372,0.270918 -0.0398,0.400387 z m -2.032911,0.442879 c 0.448686,-0.01202 0.867886,-0.325471 0.856341,-0.797978 -0.01338,-0.54673 -0.388838,-0.894552 -0.856341,-0.888376 -0.498619,0.0067 -0.856338,0.339664 -0.856338,0.84317 0,0.491167 0.444976,0.854164 0.856338,0.843184 z"
       id="path9"
       style="display:inline;fill:url(#radialGradient1795);fill-opacity:1;stroke-width:0.428661"
       sodipodi:nodetypes="ccccccsccccccsccccccsccccccscsssss" /></g></svg>
