<?xml version="1.0" encoding="UTF-8"?>
<svg width="16" height="16" version="1.1" viewBox="0 0 16 16" xml:space="preserve" xmlns="http://www.w3.org/2000/svg"><g transform="translate(4e-5,2.63e-5)"><path transform="translate(18.805,-2.1102)" d="m-10.483 7.1102a5.2 5.2 0 0 1 1.877 4 5.2 5.2 0 0 1-0.81641 2.7832l1.1855 1.2168h3.4316v-8h-5.6777z" fill="#f2f2f2"/><path transform="translate(-.99924 .0006741)" d="m1.9992 1.9993v3.7012a5.2 5.2 0 0 1 4-1.9004 5.2 5.2 0 0 1 3.3203 1.1992h1.6797v2h-0.19922a5.2 5.2 0 0 1 0.39844 2 5.2 5.2 0 0 1-0.41602 2h0.2168v1.4199l1.5391 1.5801h3.4609v-12h-14zm10 3h3v2h-3v-2zm0 3h3v2h-3v-2zm0 3h3v2h-3v-2zm-10 1.2988v1.7012h2.6191a5.2 5.2 0 0 1-2.6191-1.7012z" fill="#73a9d8"/></g><g transform="rotate(-45.025 13.639 33.705)"><circle transform="rotate(45.025)" cx="24.472" cy="-10.559" r="3.4" fill="#f2f2f2" stroke-width="1.923"/><path d="m25.008 6.1335c-2.2091 0-4 1.7909-4 4 0 2.2091 1.7909 4 4 4s4-1.7909 4-4c0-2.2091-1.7909-4-4-4zm0.0078 1a3 3 0 0 1 3 3 3 3 0 0 1-3 3 3 3 0 0 1-3-3 3 3 0 0 1 3-3z" fill="#afb1b3" stroke-width=".86956"/><rect transform="matrix(1 .00038431 -.0010461 1 0 0)" x="24.013" y="13.64" width="1.1956" height="4.1999" fill="#afb1b3" stroke-width=".90938"/></g></svg>
