<?xml version="1.0" encoding="UTF-8" standalone="no"?>
<!-- Created with Inkscape (http://www.inkscape.org/) -->

<svg
        width="44"
        height="44"
        viewBox="0 0 44 44"
        version="1.1"
        id="svg5"
        xml:space="preserve"
        sodipodi:docname="DatabaseNavigator.svg"
        inkscape:version="1.2-alpha1 (7fa1c12520, 2022-03-30, custom)"
        xmlns:inkscape="http://www.inkscape.org/namespaces/inkscape"
        xmlns:sodipodi="http://sodipodi.sourceforge.net/DTD/sodipodi-0.dtd"
        xmlns:xlink="http://www.w3.org/1999/xlink"
        xmlns="http://www.w3.org/2000/svg"
><sodipodi:namedview
     id="namedview7"
     pagecolor="#ffffff"
     bordercolor="#000000"
     borderopacity="0.25"
     inkscape:pageshadow="2"
     inkscape:pageopacity="0.0"
     inkscape:pagecheckerboard="0"
     inkscape:deskcolor="#d1d1d1"
     inkscape:document-units="px"
     showgrid="true"
     inkscape:zoom="20.70196"
     inkscape:cx="13.1147"
     inkscape:cy="16.616784"
     inkscape:window-width="2560"
     inkscape:window-height="1369"
     inkscape:window-x="-8"
     inkscape:window-y="-8"
     inkscape:window-maximized="1"
     inkscape:current-layer="layer1"><inkscape:grid
       type="xygrid"
       id="grid713" /></sodipodi:namedview><defs
     id="defs2"><linearGradient
       inkscape:collect="always"
       id="linearGradient3829"><stop
         style="stop-color:#b0b0b0;stop-opacity:0.18834084;"
         offset="0"
         id="stop3825" /><stop
         style="stop-color:#adadad;stop-opacity:1;"
         offset="1"
         id="stop3827" /></linearGradient><linearGradient
       inkscape:collect="always"
       id="linearGradient3821"><stop
         style="stop-color:#b3f0ff;stop-opacity:1;"
         offset="0"
         id="stop3817" /><stop
         style="stop-color:#4251ff;stop-opacity:1;"
         offset="1"
         id="stop3819" /></linearGradient><linearGradient
       id="linearGradient3813"
       inkscape:swatch="solid"><stop
         style="stop-color:#525aff;stop-opacity:1;"
         offset="0"
         id="stop3811" /></linearGradient><linearGradient
       inkscape:collect="always"
       id="linearGradient1793"><stop
         style="stop-color:#e7b43e;stop-opacity:1;"
         offset="0.24595375"
         id="stop1789" /><stop
         style="stop-color:#c46b23;stop-opacity:1;"
         offset="1"
         id="stop1791" /></linearGradient><radialGradient
       inkscape:collect="always"
       xlink:href="#linearGradient1793"
       id="radialGradient1795"
       cx="85.201859"
       cy="119.48863"
       fx="85.201859"
       fy="119.48863"
       r="30.989679"
       gradientTransform="matrix(0.37154265,0,0,0.36943935,45.684416,40.043272)"
       gradientUnits="userSpaceOnUse" /><linearGradient
       inkscape:collect="always"
       xlink:href="#linearGradient3821"
       id="linearGradient3823"
       x1="17.067917"
       y1="97.485809"
       x2="75.719307"
       y2="97.485809"
       gradientUnits="userSpaceOnUse"
       gradientTransform="matrix(0.38277247,0,0,0.35364093,44.05459,40.269879)" /><linearGradient
       inkscape:collect="always"
       xlink:href="#linearGradient3829"
       id="linearGradient3831"
       x1="64.820946"
       y1="85.956795"
       x2="127.20277"
       y2="85.956795"
       gradientUnits="userSpaceOnUse"
       gradientTransform="matrix(0.37154265,0,0,0.35364093,43.325224,39.708462)" /></defs><g
     inkscape:groupmode="layer"
     id="layer3"
     inkscape:label="Layer 3"
     transform="translate(-48.586509,-53.635997)"><path
       fill="#6e6e6e"
       fill-rule="evenodd"
       d="M 90.586509,65.971927 H 78.997715 V 55.635997 H 67.408998 v 28.940619 h 23.177511 z m -9.898009,-10.33593 -0.0427,8.810394 9.940704,-0.170784 z m 5.26248,14.470301 v 2.037889 l -13.906526,-0.0427 v -1.995191 z m 0,4.134379 v 1.909805 l -13.86383,0.0427 -0.0427,-1.9525 z m 0,4.134375 v 2.067197 H 72.044454 v -2.067197 z"
       id="path864"
       style="fill:url(#linearGradient3831);fill-opacity:1;stroke-width:2.18891"
       sodipodi:nodetypes="cccccccccccccccccccccccccc" /></g><g
     inkscape:label="Layer 1"
     inkscape:groupmode="layer"
     id="layer1"
     transform="translate(-48.586509,-53.635997)"><g
       id="g537"><path
         fill="#40b6e0"
         fill-opacity="0.7"
         fill-rule="evenodd"
         d="m 50.587744,65.978767 c 2.137557,2.257668 6.991945,3.01816 11.211229,2.994174 4.053111,-0.02326 9.727625,-0.877064 11.238914,-3.167484 l -0.0289,5.469868 c -0.01125,2.129058 -5.019453,3.855012 -11.211239,3.855012 -6.191804,0 -11.211735,-1.72594 -11.211239,-3.855012 z m 22.422456,6.58546 v 5.581229 c 0,2.025263 -5.019437,3.667011 -11.211227,3.667011 -6.191796,0 -11.211229,-1.641748 -11.211229,-3.667011 v -5.430661 c 2.121111,2.419916 7.296367,3.093607 11.23889,3.068027 3.997783,-0.02638 9.201844,-0.749224 11.183566,-3.218595 z m 0,7.068394 v 5.263891 c 0,2.129083 -5.019437,3.855015 -11.211227,3.855015 -6.191796,0 -11.211229,-1.725932 -11.211229,-3.855015 v -5.295121 c 2.175417,2.137023 6.576855,2.889071 11.211229,2.889071 4.634362,0 9.008111,-0.771964 11.211227,-2.857841 z M 61.798973,68.448272 c -6.191796,0 -11.211229,-1.725931 -11.211229,-3.855087 0,-2.129083 5.019433,-3.855017 11.211229,-3.855017 6.19179,0 11.211227,1.725934 11.211227,3.855017 0,2.129156 -5.019437,3.855087 -11.211227,3.855087 z"
         id="path176"
         style="fill:url(#linearGradient3823);fill-opacity:1;stroke-width:2.00812;stroke-dasharray:none"
         sodipodi:nodetypes="cscsssccssscsccssscscsssss" /><ellipse
         style="fill:#dae8ff;fill-opacity:1;stroke-width:27.7829"
         id="path942"
         cx="61.812199"
         cy="64.460464"
         rx="9.2382717"
         ry="2.7460842" /></g></g><g
     inkscape:groupmode="layer"
     id="layer2"
     inkscape:label="Layer 2"
     transform="translate(-48.586509,-53.635997)"><path
       fill="#6e6e6e"
       fill-rule="evenodd"
       d="m 86.103178,85.844382 2.751366,1.86807 c -0.529515,1.549865 -1.398759,2.955117 -2.524659,4.137226 l -3.085197,-1.317113 c -0.87811,0.732222 -1.909409,1.303811 -3.042539,1.66616 l -0.33604,3.187516 c -0.814544,0.163821 -1.65937,0.249756 -2.52545,0.249756 -0.866095,0 -1.710934,-0.08589 -2.525461,-0.249756 l -0.336084,-3.187516 c -1.133149,-0.362162 -2.164446,-0.933938 -3.042539,-1.66616 l -3.085247,1.317113 c -1.125829,-1.182109 -1.995084,-2.587361 -2.524599,-4.137226 l 2.751365,-1.86807 c -0.112563,-0.53591 -0.17162,-1.090115 -0.17162,-1.657304 0,-0.567189 0.05908,-1.121391 0.17162,-1.657297 l -2.751365,-1.868079 c 0.529515,-1.549854 1.39877,-2.95511 2.524654,-4.137235 l 3.085211,1.317125 c 0.878089,-0.732223 1.909403,-1.303816 3.042536,-1.666165 l 0.336038,-3.187501 c 0.814533,-0.163821 1.65937,-0.249714 2.525463,-0.249714 0.866089,0 1.710913,0.08589 2.525456,0.249714 l 0.336037,3.187501 c 1.133141,0.362161 2.164444,0.933942 3.04255,1.666165 l 3.085201,-1.317125 c 1.125902,1.182125 1.995138,2.587381 2.524659,4.137235 l -2.75137,1.868079 c 0.112561,0.535906 0.171573,1.090108 0.171573,1.657297 0,0.567189 -0.05915,1.121394 -0.171573,1.657304 z m -8.762648,1.833189 c 1.93402,-0.04971 3.740929,-1.347208 3.691169,-3.303035 -0.05765,-2.263051 -1.676041,-3.702778 -3.691169,-3.677215 -2.149235,0.02815 -3.691149,1.405957 -3.691149,3.490098 0,2.033062 1.918029,3.535597 3.691149,3.490152 z"
       id="path9"
       style="display:inline;fill:url(#radialGradient1795);fill-opacity:1;stroke-width:1.81065"
       sodipodi:nodetypes="ccccccsccccccsccccccsccccccscsssss" /></g></svg>
