<?xml version="1.0" encoding="UTF-8" standalone="no"?>
<svg
        width="16"
        height="16"
        version="1.1"
        viewBox="0 0 16 16"
        xml:space="preserve"
        id="svg18"
        sodipodi:docname="Colors.svg"
        inkscape:version="1.2.2 (732a01da63, 2022-12-09)"
        xmlns:inkscape="http://www.inkscape.org/namespaces/inkscape"
        xmlns:sodipodi="http://sodipodi.sourceforge.net/DTD/sodipodi-0.dtd"
        xmlns="http://www.w3.org/2000/svg"
><defs
     id="defs22" /><sodipodi:namedview
     id="namedview20"
     pagecolor="#505050"
     bordercolor="#ffffff"
     borderopacity="1"
     inkscape:showpageshadow="0"
     inkscape:pageopacity="0"
     inkscape:pagecheckerboard="1"
     inkscape:deskcolor="#505050"
     showgrid="true"
     inkscape:zoom="45.387417"
     inkscape:cx="-5.6293135"
     inkscape:cy="-2.1591887"
     inkscape:window-width="2560"
     inkscape:window-height="1377"
     inkscape:window-x="-8"
     inkscape:window-y="-8"
     inkscape:window-maximized="1"
     inkscape:current-layer="svg18"><inkscape:grid
       type="xygrid"
       id="grid1648" /></sodipodi:namedview><rect
     style="fill:#f5c400;fill-opacity:1"
     id="rect1650"
     width="2"
     height="2"
     x="1"
     y="10" /><rect
     style="fill:#f5c400;fill-opacity:1"
     id="rect1650-8"
     width="2"
     height="2"
     x="4"
     y="10" /><rect
     style="fill:#eda200;fill-opacity:1"
     id="rect1650-8-8"
     width="2"
     height="2"
     x="10"
     y="10" /><rect
     style="fill:#f0a732;fill-opacity:1"
     id="rect1650-8-2"
     width="2"
     height="2"
     x="13"
     y="10" /><rect
     style="fill:#73a9d8;fill-opacity:1"
     id="rect1650-8-8-6"
     width="2"
     height="2"
     x="1"
     y="4" /><rect
     style="fill:#73a9d8;fill-opacity:1"
     id="rect1650-8-8-9"
     width="2"
     height="2"
     x="4"
     y="4" /><rect
     style="fill:#59a869;fill-opacity:1"
     id="rect1650-8-8-6-9"
     width="2"
     height="2"
     x="10"
     y="7" /><rect
     style="fill:#499c54;fill-opacity:1"
     id="rect1650-8-8-6-9-1"
     width="2"
     height="2"
     x="13"
     y="7" /><rect
     style="fill:#62b543;fill-opacity:1"
     id="rect1650-8-8-6-9-8"
     width="2"
     height="2"
     x="1.0000005"
     y="7"
     inkscape:transform-center-x="-1.8072055"
     inkscape:transform-center-y="-0.093476144" /><rect
     style="fill:#62b543;fill-opacity:1"
     id="rect1650-8-8-6-9-8-4"
     width="2"
     height="2"
     x="4.0000005"
     y="7"
     inkscape:transform-center-x="-1.8072055"
     inkscape:transform-center-y="-0.093476144" /><rect
     style="fill:#f26522;fill-opacity:1"
     id="rect1650-8-8-1"
     width="2"
     height="2"
     x="1"
     y="13" /><rect
     style="fill:#f26522;fill-opacity:1"
     id="rect1650-8-8-1-9"
     width="2"
     height="2"
     x="4"
     y="13" /><rect
     style="fill:#c89e23;fill-opacity:1"
     id="rect1650-8-8-7"
     width="2"
     height="2"
     x="1"
     y="-3" /><rect
     style="fill:#c89e23;fill-opacity:1"
     id="rect1650-8-8-7-8"
     width="2"
     height="2"
     x="4"
     y="-3" /><rect
     style="fill:#5f8dd3;fill-opacity:1"
     id="rect1650-8-8-7-0"
     width="2"
     height="2"
     x="1"
     y="1" /><rect
     style="fill:#5f8dd3;fill-opacity:1"
     id="rect1650-8-8-7-8-8"
     width="2"
     height="2"
     x="4"
     y="1" /><rect
     style="fill:#db5860;fill-opacity:1"
     id="rect1650-8-8-1-2"
     width="2"
     height="2"
     x="10"
     y="13"
     inkscape:transform-center-x="-1.7626031"
     inkscape:transform-center-y="0.88130154" /><rect
     style="fill:#c75450;fill-opacity:1"
     id="rect1650-8-8-1-2-5"
     width="2"
     height="2"
     x="13"
     y="13"
     inkscape:transform-center-x="-1.7626031"
     inkscape:transform-center-y="0.88130154" /><rect
     style="fill:#389fd6;fill-opacity:1"
     id="rect1650-8-8-6-4"
     width="2"
     height="2"
     x="10"
     y="4"
     inkscape:transform-center-x="0.022032538"
     inkscape:transform-center-y="-0.96943169" /><rect
     style="fill:#3592c4;fill-opacity:1"
     id="rect1650-8-8-6-4-6"
     width="2"
     height="2"
     x="13"
     y="4"
     inkscape:transform-center-x="0.022032538"
     inkscape:transform-center-y="-0.96943169" /><g
     fill="none"
     fill-rule="evenodd"
     transform="translate(1.75,-12.1)"
     id="g21611"><path
       d="m -13.74998,13.18555 h -0.22307 c -0.22065,0 -0.57217,-0.03755 -0.77693,-0.091 v 1.0099 h -0.99999 v -1.4961 C -16.32609,12.14126 -16.75,11.4961 -16.75,10.7 c 0,-0.796091 0.42391,-1.561151 1.00003,-2.028251 v -1.5674 h 0.99999 v 1.0812 c 0.20476,-0.05345 0.55627,-0.091 0.77693,-0.091 h 0.22307 v -0.99018 h 0.99999 v 0.99018 h 0.68461 c 0.10874,0 0.20982,0.01909 0.31538,0.03245 v -1.0226 h 0.99999 v 1.3459 c 0.41524,0.24309 0.7093,0.59818 0.9325,1.0265 l 0.89279,-0.89409 0.67468,0.67518 -1.282,1.282901 c 0.0013,0.03373 0.0064,0.02991 0.0064,0.06364 0,0.01209 -0.005,0.05791 -0.0057,0.07 l 1.2813,1.2765 -0.67468,0.67518 -0.868,-0.86864 c -0.22192,0.44864 -0.5268,0.82027 -0.9573,1.0723 v 1.2746 h -0.99999 v -0.95136 c -0.10556,0.01336 -0.20664,0.03246 -0.31538,0.03246 H -12.75 v 0.9189 h -1.0001 z m 2,-3.611301 h -0.99999 v 2.064701 h 0.99999 z m -2,0 h -1 v 2.064701 h 1 z"
       fill="#62b543"
       stroke-width="1.0061"
       id="path6346"
       sodipodi:nodetypes="csccccsccccsccccsccccccccsccccccccscccccccccccccc" /><path
       id="rect13504"
       style="fill:#ffffff;fill-opacity:0.492228"
       d="m -16.75,7.1 v 1 c 0,0 -1.022033,0.8093091 -1,2.5 0.02203,1.690691 1,2.5 1,2.5 v 2 h 7 v -2 l 1,1 h 1 v -7 h -1 l -1,1 c 0,0 0,-0.6 0,-1 0,-1 -1,-1 -1,-1 l -5,0 c 0,0 -1,0 -1,1 z"
       sodipodi:nodetypes="zczcccccccccsccz" /></g><g
     transform="translate(-23,-3)"
     fill-rule="evenodd"
     id="g27375">
        <path
   d="M 16,12.5 C 16,14.433 14.433,16 12.5,16 10.567,16 9,14.433 9,12.5 9,10.567 10.567,9 12.5,9 14.433,9 16,10.567 16,12.5"
   fill="#e05555"
   id="path27371" />
        <path
   d="m 13,14 v 1 h -1 v -1 z m 0,-4 v 3 h -1 v -3 z"
   fill="#ffffff"
   id="path27373" />
    </g><circle
     style="fill:#ffffff;fill-opacity:0.528497;stroke-width:1.12818"
     id="path27821"
     cx="-10.5"
     cy="9.5"
     r="4.5" /><polygon
     transform="matrix(0.85714,0,0,0.88889,-20.85711,-21.555567)"
     points="8,13 8,4 15,8.5 "
     fill="#59a869"
     id="polygon39421"
     style="fill:#62b543;fill-opacity:1" /><path
     id="rect51486"
     style="fill:#ffffff;fill-opacity:0.492228"
     d="m -15,-19 v 10 h 1.4 l 7.4,-5 -7.4,-5 z"
     sodipodi:nodetypes="cccccc" /><path
     fill="#9aa7b0"
     fill-opacity="0.8"
     fill-rule="evenodd"
     d="M 1.6666668,-14.145834 C 0.6958338,-14.4875 0,-15.4125 0,-16.5 0,-17.879167 1.1208338,-19 2.4999998,-19 c 1.379167,0 2.5,1.120833 2.5,2.5 0,1.0875 -0.695833,2.0125 -1.666666,2.354166 v 1.645833 h 1.666666 v 1.5 h -1.666666 v 1 H 1.6666668 Z M 3.3333338,-16.5 c 0,-0.458334 -0.375,-0.833334 -0.833334,-0.833334 -0.458333,0 -0.833333,0.375 -0.833333,0.833334 0,0.458333 0.375,0.833333 0.833333,0.833333 0.458334,0 0.833334,-0.375 0.833334,-0.833333 z"
     id="path29583" /></svg>
