<?xml version="1.0" encoding="UTF-8"?>
<svg width="16" height="16" version="1.1" viewBox="0 0 16 16" xml:space="preserve" xmlns="http://www.w3.org/2000/svg"><path transform="translate(18.805 -2.1102)" d="m-16.805 7.1102h12v8h-12z" fill="#f2f2f2" stroke-width=".8165"/><path transform="translate(-.99924 .0006741)" d="m1.9992 1.9993v12h14v-12zm1 3 3-4e-7v2l-3 4e-7zm4-4e-7 4 1e-7v2l-4-1e-7zm5 1e-7 3 2e-7v2l-3-2e-7zm-9 3 3-4e-7 2e-7 2-3 4e-7zm4-4e-7 4 1e-7v2l-4-1e-7zm5 1e-7 3 2e-7v2l-3-2e-7zm-9 3h3v2h-3zm4 0h4v2h-4zm5 0h3v2h-3z" fill="#73a9d8"/></svg>
