<?xml version="1.0" encoding="UTF-8"?>
<svg width="16" height="16" version="1.1" viewBox="0 0 16 16" xml:space="preserve" xmlns="http://www.w3.org/2000/svg"><g transform="matrix(.70166 -.36002 .35374 .71412 6.129 1.0678)" fill="#5f8dd3"><path d="m5.7335 1.42c-0.52457-0.25262-1.1126-0.39272-1.7338-0.39274 0.21328 0.7908 0.074191 1.4858-0.29017 2.0663 0.091987-0.027901 0.19005-0.041933 0.29115-0.041933 0.55228 1e-7 0.99842 0.44884 0.99842 1.0011 0 0.55228-0.44746 1.0002-0.99974 1.0002-0.55228 0-0.99842-0.44884-0.99842-1.0011 0-0.061866 0.00518-0.12192 0.015934-0.18068-0.52094 0.43157-1.1853 0.75285-1.8871 0.94943a5.3321 5.2326 26.755 0 1 0.19696 3.1816c0.70842 0.63692 1.6457 1.025 2.6732 1.025 2.2097-1.144e-4 4.0009-1.7937 4.0001-4.0031-2.464e-4 -1.5874-0.92592-2.9586-2.2665-3.6041zm-2.7166 2.4512c0.27635-0.22894 0.51186-0.48956 0.69266-0.77762-0.35422 0.10744-0.62499 0.40785-0.69266 0.77762z"/><path d="m6 7.125v8.875h-2l-2-2v-0.975l1-1v-1l-1-1.025v-2.975z" stroke-width="1.211"/></g><g transform="matrix(.78578 0 0 .79974 5.0073 -.77817)"><path d="m3.9999 1.0267c-2.1432 0-3.8918 1.685-3.9943 3.8025a5.3321 5.2326 0 0 1 1.0042-0.10501 5.3321 5.2326 0 0 1 5.0979 3.7024c1.1367-0.70602 1.892-1.9657 1.8915-3.402-3.428e-4 -2.2086-1.7904-3.9978-3.9993-3.9979zm0 2.0246c0.55228 1e-7 0.9992 0.44901 0.9992 1.0013 0 0.55228-0.44692 0.99886-0.9992 0.99886-0.55228 0-0.9992-0.44657-0.9992-0.99886 0-0.55228 0.44692-1.0013 0.9992-1.0013z" fill="#fc0"/></g><g transform="matrix(.70166 -.36002 .35374 .71412 1.1302 5.05)" fill="#5f8dd3"><path d="m4 1.0269c2.2089 5.73e-5 3.9997 1.7895 4 3.9981 8.086e-4 2.2094-1.7903 4.0018-4 4.0019-2.2097-5.7e-5 -4.0008-1.7925-4-4.0019 2.2326-0.1849 4.6241-1.6839 4-3.9981zm0 2.025c-0.55228 0-1 0.44772-1 1s0.44772 1 1 1c0.55228-1e-7 1-0.44772 1-1s-0.44772-1-1-1z"/><path d="m6 7.125v8.875h-2l-2-2v-0.975l1-1v-1l-1-1.025v-2.975z" stroke-width="1.211"/></g><g transform="matrix(.78578 0 0 .79974 .0084745 3.2041)" fill="#fc0"><path d="m4 1.0269c2.2089 5.73e-5 3.9997 1.7895 4 3.9981 8.086e-4 2.2094-1.7903 4.0018-4 4.0019-2.2097-5.7e-5 -4.0008-1.7925-4-4.0019 3.2431e-4 -2.2086 1.7911-3.9981 4-3.9981zm0 2.025c-0.55228 0-1 0.44772-1 1s0.44772 1 1 1c0.55228-1e-7 1-0.44772 1-1s-0.44772-1-1-1z"/><path d="m6 7.125v8.875h-2l-2-2v-0.975l1-1v-1l-1-1.025v-2.975z" stroke-width="1.211"/></g></svg>
