<?xml version="1.0" encoding="UTF-8"?>
<svg width="16" height="16" version="1.1" viewBox="0 0 16 16" xml:space="preserve" xmlns="http://www.w3.org/2000/svg"><g transform="rotate(-26.755 6.014 -3.9622)" fill="#5f8dd3"><path d="m4 1.0269c2.2089 5.73e-5 3.9997 1.7895 4 3.9981 8.086e-4 2.2094-1.7903 4.0018-4 4.0019-2.2097-5.7e-5 -4.0008-1.7925-4-4.0019 2.2326-0.1849 4.6241-1.6839 4-3.9981zm0 2.025c-0.55228 0-1 0.44772-1 1s0.44772 1 1 1c0.55228-1e-7 1-0.44772 1-1s-0.44772-1-1-1z"/><path d="m6 7.125v8.875h-2l-2-2v-0.975l1-1v-1l-1-1.025v-2.975z" stroke-width="1.211"/></g><g transform="translate(1 -.025)" fill="#fc0"><path d="m4 1.0269c2.2089 5.73e-5 3.9997 1.7895 4 3.9981 8.086e-4 2.2094-1.7903 4.0018-4 4.0019-2.2097-5.7e-5 -4.0008-1.7925-4-4.0019 3.2431e-4 -2.2086 1.7911-3.9981 4-3.9981zm0 2.025c-0.55228 0-1 0.44772-1 1s0.44772 1 1 1c0.55228-1e-7 1-0.44772 1-1s-0.44772-1-1-1z"/><path d="m6 7.125v8.875h-2l-2-2v-0.975l1-1v-1l-1-1.025v-2.975z" stroke-width="1.211"/></g></svg>
