<?xml version="1.0" encoding="UTF-8"?>
<svg width="16" height="16" version="1.1" viewBox="0 0 16 16" xml:space="preserve" xmlns="http://www.w3.org/2000/svg"><g transform="translate(27,-2)"><path d="m-26 9h8v8h-8z" fill="#fff" stroke-width=".8165"/><path d="m-27 6v12h9v-1h-4v-2h4v-1h-4v-2h4v-1h-4v-2h4v-3zm1 3h3v2h-3zm0 3h3v2h-3zm0 3h3v2h-3z" fill="#afb1b3"/><g transform="translate(-52,-2)"><rect x="35" y="11" width="3" height="8" fill="#cce9ff"/><path d="m34 8v12h5v-12zm1 3h3v2h-3zm0 3h3v2h-3zm0 3h3v2h-3z" fill="#73a9d8"/></g></g><g transform="translate(-23,-8)"><path transform="translate(23,8)" d="m2 0v3h1 3 1 4v-3h-9z" fill="#afb1b3"/><path d="m34 8v3h4v9h1v-12z" fill="#73a9d8"/></g></svg>
