<?xml version="1.0" encoding="UTF-8"?>
<svg width="16" height="16" version="1.1" viewBox="0 0 16 16" xml:space="preserve" xmlns="http://www.w3.org/2000/svg"><path d="m2 5v8h6.4004v-0.70703a3.5 3.5 0 0 1-1.4004-2.793 3.5 3.5 0 0 1 3-3.4609v-1.0391h-8z" fill="#fff"/><path d="m1 2v12h7.4004v-1h-2.4004v-2h1.3516a3.5 3.5 0 0 1-0.30859-1h-1.043v-2h1.3516a3.5 3.5 0 0 1 0.7168-1h-2.0684v-2h4v-3h-9zm1 3h3v2h-3v-2zm0 3h3v2h-3v-2zm0 3h3v2h-3v-2z" fill="#afb1b3"/><path transform="translate(-24,-6)" d="m35 11v1.0352c0.35237 0.05125 0.69485 0.15597 1.0156 0.31055 0.46339-0.22287 0.9702-0.34091 1.4844-0.3457 0.16729-2.46e-4 0.33439 0.0115 0.5 0.03516v-1.0352z" fill="#cce9ff"/><path transform="translate(-24,-6)" d="m34 8v4.0391c0.16552-0.02496 0.33261-0.03801 0.5-0.03906 0.16734 4.01e-4 0.33444 0.0128 0.5 0.03711v-1.0371h3v1.0371c0.3465 0.04969 0.68358 0.15108 1 0.30078v-4.3379z" fill="#73a9d8"/><g transform="translate(14.848 -2.2747)" fill="#999"><path d="m-4.35 9.2747c-1.3806 0-2.4998 1.1176-2.5 2.498-5e-4 1.3809 1.1189 2.5019 2.5 2.502 0.17411-1.3e-5 0.34374-0.01884 0.50781-0.052734a3.5 3.5 0 0 1-1.0078-2.4473 3.5 3.5 0 0 1 0.013672-0.21875c-0.086495-0.10723-0.13867-0.24213-0.13867-0.39062 0-0.23731 0.13134-0.44494 0.32617-0.55078a3.5 3.5 0 0 1 0.80664-1.2891c-0.16389-0.033779-0.33391-0.050777-0.50781-0.050781z"/><path d="m-5.2503 13.074v1.8008l0.40039 0.40039v1l-0.40039 0.39844v0.60156l0.90039 0.99805h0.90039v-3.709a3.5 3.5 0 0 1-1.1406-1.4902h-0.66016z"/></g><g transform="translate(60.215 6.1782)" fill="#dcb519"><path d="m-46.717 0.82103c1.3806 3.58e-5 2.4998 1.1184 2.5 2.4988 5.06e-4 1.3809-1.1189 2.5011-2.5 2.5012-1.3811-3.5e-5 -2.5005-1.1203-2.5-2.5012 2.03e-4 -1.3804 1.1194-2.4988 2.5-2.4988zm0 1.2656c-0.34518 0-0.625 0.27982-0.625 0.625s0.27982 0.625 0.625 0.625 0.625-0.27982 0.625-0.625-0.27982-0.625-0.625-0.625z" stroke-width=".625"/><path d="m-45.817 4.6211v5.198h-0.9l-0.9-0.99798v-0.6l0.4-0.4v-1l-0.4-0.4v-1.8z" stroke-width=".59718"/></g></svg>
