<?xml version="1.0" encoding="UTF-8"?>
<svg width="16" height="16" version="1.1" viewBox="0 0 16 16" xml:space="preserve" xmlns="http://www.w3.org/2000/svg"><path d="m2 5h8v8h-8z" fill="#fff" stroke-width=".8165"/><path d="m1 2v12h9v-1h-4v-2h4v-1h-4v-2h4v-1h-4v-2h4v-3h-9zm1 3h3v2h-3v-2zm0 3h3v2h-3v-2zm0 3h3v2h-3v-2z" fill="#afb1b3"/><g transform="translate(-24,-6)"><path d="m35 11v2.0547a3.5 3.5 0 0 1 2.5-1.0547 3.5 3.5 0 0 1 0.5 0.035156v-1.0352h-3zm0 6.9453v1.0547h0.40039v-0.70703a3.5 3.5 0 0 1-0.40039-0.34766z" fill="#cce9ff"/><path d="m34 8v7.5a3.5 3.5 0 0 1 1.0547-2.5h-0.054688v-2h3v1.0371a3.5 3.5 0 0 1 1 0.30078v-4.3379h-5zm0 7.5v4.5h1.4004v-1h-0.40039v-1.0547a3.5 3.5 0 0 1-1-2.4453z" fill="#73a9d8"/></g><g transform="translate(17.866 -2.2708)" fill="#dcb519"><path d="m-4.3502 9.2739c1.3806 3.58e-5 2.4998 1.1184 2.5 2.4988 5.057e-4 1.3809-1.1189 2.5011-2.5 2.5012-1.3811-3.5e-5 -2.5005-1.1203-2.5-2.5012 2.027e-4 -1.3804 1.1194-2.4988 2.5-2.4988zm0 1.2656c-0.34518 0-0.625 0.27982-0.625 0.625s0.27982 0.625 0.625 0.625 0.625-0.27982 0.625-0.625-0.27982-0.625-0.625-0.625z" stroke-width=".625"/><path d="m-3.4502 13.074v5.198h-0.9l-0.9-0.99798v-0.6l0.4-0.4v-1l-0.4-0.4v-1.8z" stroke-width=".59718"/></g></svg>
