<?xml version="1.0" encoding="UTF-8"?>
<svg width="16" height="16" version="1.1" viewBox="0 0 16 16" xml:space="preserve" xmlns="http://www.w3.org/2000/svg"><g fill-rule="evenodd"><rect y="5" width="6" height="11" fill="#eda200" stroke-width="1.1456"/><rect x="5" width="6" height="4" fill="#eda200" stroke-width=".69085"/><g transform="translate(1 .0015625)" fill="#bbbdbe"><path d="m6 4.9984 4 4.25e-5v3.0016l-4-0.0016v-1h-1v-1h1z"/><path d="m6 8.9984 4 4.25e-5v3l-4-2e-6v-1h-1v-1h1z"/><path d="m6 12.998 4 3e-6v3l-4-4.1e-5v-1h-1v-1h1z"/></g><g transform="translate(-1)" fill="#bbbdbe"><path d="m13-2e-7 4 2e-7v3h-4v-1h-1v-1h1z"/><path d="m13 4 4-2e-7v3h-4z"/><path d="m13 8h4v3h-4z"/></g></g></svg>
