<?xml version="1.0" encoding="UTF-8"?>
<svg width="16" height="16" version="1.1" viewBox="0 0 16 16" xml:space="preserve" xmlns="http://www.w3.org/2000/svg"><g><rect y="2.0467" width="16" height="3" fill="#73a9d8" fill-rule="evenodd" stroke-width=".92582"/><path d="m2 5.8467h3v5.2h-3z" fill="#333" stroke-width=".24175"/><path d="m3.8 8.5798-1.8 1.8669 0.6 0.6223 2.4-2.4892-2.4-2.4892-0.6 0.6223zm-2.8-3.5798h14v3h-7v2s-1.0781 0.33438-1 3c-1.6 0-6 0.01558-6 0.01558z" fill="#fff" stroke-width="1.0184"/><path d="m0 5v9l7.2218 0.0299c-0.18438-0.39687-0.21787-0.84006-0.22177-1.0299h-6v-8z" fill="#999"/></g><rect x="15" y="5" width=".98438" height="5.0156" fill="#999"/><path d="m10.997 15.088h-0.22307c-0.22065 0-0.57217-0.03755-0.77693-0.091v1.0099h-0.99999v-1.4961c-0.57612-0.46709-0.89999-1.1722-0.89999-1.9683 0-0.79609 0.32387-1.5012 0.89999-1.9683v-1.5674h0.99999v1.0812c0.20476-0.05345 0.55627-0.091 0.77693-0.091h0.22307v-0.99018h0.99999v0.99018h0.68461c0.10874 0 0.20982 0.019092 0.31538 0.032452v-1.0226h0.99999v1.3459c0.41524 0.24309 0.7093 0.59818 0.9325 1.0265l0.89279-0.89409 0.67468 0.67518-1.282 1.2829c0.0013 0.03373 0.0064 0.02991 0.0064 0.06364 0 0.01209-5e-3 0.05791-0.0057 0.07l1.2813 1.2765-0.67468 0.67518-0.868-0.86864c-0.22192 0.44864-0.5268 0.82027-0.9573 1.0723v1.2746h-0.99999v-0.95136c-0.10556 0.01336-0.20664 0.03246-0.31538 0.03246h-0.68461v0.9189h-1.0001zm2-3.6113h-0.99999v2.0647h0.99999zm-2 0h-1v2.0647h1z" fill="#62b543" stroke-width="1.0061"/></svg>
