<?xml version="1.0" encoding="UTF-8"?>
<svg width="16" height="16" version="1.1" viewBox="0 0 16 16" xml:space="preserve" xmlns="http://www.w3.org/2000/svg"><path d="m2 5v8h7v-7h1.4004l3.5996 2.4316v-3.4316h-12z" fill="#f2f2f2"/><path d="m1 2v12h8v-1h-3v-2h3v-1h-3v-2h3v-1h-3v-2h4v1h0.40039l0.59961 0.4043v-1.4043h3v2h-2.1191l1.4805 1h0.63867v0.43164l1 0.67578v-7.1074h-14zm1 3h3v2h-3v-2zm0 3h3v2h-3v-2zm0 3h3v2h-3v-2zm13 1.8926-1.6387 1.1074h1.6387v-1.1074z" fill="#afb1b3"/><polygon transform="matrix(.85714 0 0 .88889 3.1429 3.4444)" points="8 13 8 4 15 8.5" fill="#62b543"/></svg>
