<?xml version="1.0" encoding="UTF-8"?>
<svg width="16" height="16" version="1.1" viewBox="0 0 16 16" xml:space="preserve" xmlns="http://www.w3.org/2000/svg"><g transform="matrix(.83333 0 0 .85714 6.0006 -2.1423)" stroke-width=".86602"><path d="m-2.4007 5.9994v2.7098l2.4-0.37644 4.8 0.80444v-1.9711z" fill="#e8cd7d"/><path d="m11.999 5.9994v9.3334l-3.6 0.58334v-6.1847l-3.6-0.60201v-1.9633z" fill="#97791b"/><path d="m-2.4007 5.9994 7.2 1.1667 7.2-1.1667-7.2-1.1667z" fill="#c89e23"/></g><g transform="matrix(.83333 0 0 .85714 .009375 -.13973)" stroke-width=".86602"><path d="m-0.01125 8.3297 5e-8 9.3334 7.2 1.1667v-9.3334z" fill="#e8cd7d"/><path d="m14.389 8.3297v9.3334l-7.2 1.1667v-9.3334z" fill="#97791b"/><path d="m-0.01125 8.3297 7.2 1.1667 7.2-1.1667-7.2-1.1667z" fill="#c89e23"/></g></svg>
