<?xml version="1.0" encoding="UTF-8"?>
<svg width="16" height="16" version="1.1" viewBox="0 0 16 16" xml:space="preserve" xmlns="http://www.w3.org/2000/svg"><path d="m1 3v10l7 2c-1.4-1.2-1.4-3 0-4v-6z" fill="#e8cd7d"/><path d="m15 3-7 2v4h7z" fill="#97791b"/><path d="m1 3 7 2 7-2-7-2z" fill="#c89e23" stroke-width=".70711"/><g transform="translate(14.151 -2.2227)" fill="#999"><g transform="translate(11.296 1.3365)" fill="#999"><path d="m-14.447 15.981h-0.22307c-0.22065 0-0.57217-0.03756-0.77693-0.09103v1.0102h-0.99999v-1.4965c-0.57612-0.46722-1-0.71768-1-1.5177s0.42381-0.94129 0.99993-1.4085v-1.5678h0.99999v1.0815c0.20476-0.05346 0.55627-0.09103 0.77693-0.09103h0.22307v-0.99046h0.99999v0.99046h0.68461c0.10874 0 0.20982 0.0191 0.31538 0.03246v-1.0229h0.99999v1.3463c0.41524 0.24316 0.57682 0.61571 0.80002 1.0442l1.2001-1.0141v1.2l-0.41562 0.4 0.41562 0.4v1.2l-1.2001-0.98588c-0.22192 0.44877-0.36942 0.87294-0.79992 1.125v1.275h-0.99999v-0.95163c-0.10556 0.01336-0.20664 0.03247-0.31538 0.03247h-0.68461v0.91916h-1.0001z" fill="#999" stroke-width="1.0062"/></g></g></svg>
