<?xml version="1.0" encoding="UTF-8"?>
<svg width="16" height="16" version="1.1" viewBox="0 0 16 16" xml:space="preserve" xmlns="http://www.w3.org/2000/svg">
        <path d="m1 3v10l7 2v-0.003906s-1.1772-0.81126-1.1992-2.502c-0.022033-1.6907 1.1992-2.498 1.1992-2.498v-1-3.9961l-7-2z" fill="#e8cd7d"/>
        <path d="m15 3-7 2v5c6.77e-5 -4.5e-5 0.0019531-0.0019531 0.0019531-0.0019531v-1c0-1 1-1 1-1h5s0.97764 0.0016297 0.99805 0.9707v-5.9688zm-7 11.996v0.003906h0.0019531v-0.001953s-0.0018862-0.001907-0.0019531-0.001953z" fill="#97791b"/>
        <path d="m1 3 7 2 7-2-7-2z" fill="#c89e23"/>
    <path transform="translate(24.75 1.8956)" d="m-13.75 13.186h-0.22307c-0.22065 0-0.57217-0.03755-0.77693-0.091v1.0099h-0.99999v-1.4961c-0.57612-0.46709-1-1.1122-1-1.9084 0-0.79609 0.42391-1.5612 1-2.0283v-1.5674h0.99999v1.0812c0.20476-0.05345 0.55627-0.091 0.77693-0.091h0.22307v-0.99018h0.99999v0.99018h0.68461c0.10874 0 0.20982 0.01909 0.31538 0.03245v-1.0226h0.99999v1.3459c0.41524 0.24309 0.7093 0.59818 0.9325 1.0265l0.89279-0.89409 0.67468 0.67518-1.282 1.2829c0.0013 0.03373 0.0064 0.02991 0.0064 0.06364 0 0.01209-5e-3 0.05791-0.0057 0.07l1.2813 1.2765-0.67468 0.67518-0.868-0.86864c-0.22192 0.44864-0.5268 0.82027-0.9573 1.0723v1.2746h-0.99999v-0.95136c-0.10556 0.01336-0.20664 0.03246-0.31538 0.03246h-0.68461v0.9189h-1.0001zm2-3.6113h-0.99999v2.0647h0.99999zm-2 0h-1v2.0647h1z" fill="#62b543" stroke-width="1.0061"/></svg>
