<?xml version="1.0" encoding="UTF-8"?>
<svg width="16" height="16" version="1.1" viewBox="0 0 16 16" xml:space="preserve" xmlns="http://www.w3.org/2000/svg"><path d="m5.8318 8.9936c-0.21157 0-0.41972 0.027919-0.62446 0.083768-0.20247 0.055838-0.38332 0.14082-0.54257 0.25493-0.15924 0.11411-0.28778 0.25979-0.3856 0.43703-0.097821 0.17481-0.14673 0.38118-0.14673 0.61912 0 0.19423 0.030709 0.36419 0.092134 0.50986 0.063697 0.14325 0.15014 0.27193 0.25934 0.38604s0.23773 0.21851 0.3856 0.3132c0.14787 0.0947 0.30711 0.18817 0.47773 0.28043 0.16152 0.0874 0.31166 0.17117 0.45043 0.25129 0.14104 0.07769 0.26275 0.16024 0.36512 0.24765 0.10237 0.08496 0.18199 0.17967 0.23887 0.28407 0.059145 0.1044 0.088721 0.22701 0.088721 0.36783 0 0.26222-0.087584 0.46373-0.26275 0.60455-0.17289 0.13839-0.43564 0.20759-0.78826 0.20759-0.10237 0-0.21384-0.01094-0.33441-0.0328-0.12057-0.02184-0.24114-0.05218-0.36171-0.09103-0.1183-0.041272-0.23204-0.091044-0.34124-0.14932-0.10692-0.05827-0.19905-0.12382-0.2764-0.19666v0.72109c0.063698 0.04612 0.14787 0.08862 0.25252 0.12747 0.10692 0.03642 0.21953 0.06678 0.33782 0.09105 0.1183 0.02672 0.23432 0.04612 0.34806 0.05828 0.11375 0.01457 0.20929 0.02184 0.28664 0.02184 0.23204 0 0.45271-0.02548 0.662-0.07648 0.20929-0.04855 0.39356-0.12868 0.5528-0.24036 0.16152-0.11169 0.28891-0.25615 0.38218-0.43339 0.095547-0.17966 0.14332-0.39818 0.14332-0.65554 0-0.19423-0.035263-0.36662-0.10578-0.51715-0.068247-0.15053-0.16152-0.28771-0.27981-0.41153-0.1183-0.12382-0.25593-0.23672-0.4129-0.3387-0.15697-0.10197-0.32304-0.19909-0.49821-0.29135-0.17062-0.089834-0.3219-0.17238-0.45384-0.24765-0.12967-0.075265-0.24-0.15296-0.331-0.23308-0.090996-0.080122-0.16038-0.16874-0.20815-0.26586-0.045497-0.09713-0.068247-0.21244-0.068247-0.34598 0-0.14325 0.030708-0.26464 0.092133-0.36419 0.061422-0.099542 0.14104-0.18088 0.23887-0.24401 0.097821-0.063123 0.20929-0.10804 0.33441-0.13475 0.12512-0.029132 0.25024-0.043703 0.37536-0.043703 0.45271 0 0.82352 0.10683 1.1124 0.32049v-0.68832c-0.22067-0.12382-0.57214-0.18574-1.0544-0.18574zm4.2893 0c-0.73024 0-1.3092 0.25008-1.7369 0.75023-0.42541 0.49773-0.63811 1.1678-0.63811 2.0103 0 0.78179 0.20815 1.4167 0.62446 1.9047 0.42086 0.48801 0.97707 0.73202 1.6686 0.73202 0.28664 0 0.55053-0.04007 0.79167-0.12018l0.92134 0.73566h1.0408l-1.3752-1.0525c0.11375-0.08497 0.22066-0.18695 0.32076-0.30592 0.42313-0.49529 0.6347-1.169 0.6347-2.0212 0-0.78422-0.20702-1.4191-0.62105-1.9047-0.41403-0.48558-0.95774-0.72838-1.6311-0.72838zm3.2144 0.087406v5.2225h2.5388v-0.55357h-1.9655v-4.6689zm-3.2554 0.46616c0.52778 0 0.94181 0.18816 1.2421 0.56449 0.30029 0.3739 0.45043 0.90683 0.45043 1.5988 0 0.67254-0.1547 1.1958-0.46408 1.5697-0.30939 0.3739-0.73252 0.56085-1.2694 0.56085-0.50275 0-0.9111-0.19545-1.225-0.58634-0.31166-0.39575-0.46749-0.91412-0.46749-1.5551 0-0.6434 0.16038-1.163 0.48114-1.5587 0.32076-0.39575 0.73821-0.59363 1.2523-0.59363z" stroke-width="0"/><g fill="#db5860"><rect x="9" y="1" width="2" height="7" fill-rule="evenodd" stroke-width="0"/><rect transform="matrix(0,1,1,0,0,0)" x="6" y="11" width="2" height="4" fill-rule="evenodd" stroke-width="0"/><path d="M 5,5 C 5,5 6,5.00237 6,4.5011873 6,4 5,4 5,4 H 3 V 5 Z M 1,2 H 5.6 C 5.6,2 8,2 8,4.4988127 8,7 5.6,7 5.6,7 H 3 v 5 H 1 Z"/></g></svg>
