<?xml version="1.0" encoding="UTF-8"?>
<svg width="16" height="16" version="1.1" viewBox="0 0 16 16" xml:space="preserve" xmlns="http://www.w3.org/2000/svg"><path d="m1 4h14s4.15e-4 4.8965 0 5c0 0 0-1-1-1h-5c-1 0-1 1-1 1v1c-1.4 1.4-1.2957 2.7162-0.71643 4h-6.2836z" fill="#f2f2f2" stroke-width="1.0184"/><path d="m11 15.092h-0.22307c-0.22065 0-0.57217-0.03755-0.77693-0.091v1.0099h-0.99999v-1.4961c-0.57612-0.46709-0.89999-1.1722-0.89999-1.9683 0-0.79609 0.32387-1.5012 0.89999-1.9683v-1.5674h0.99999v1.0812c0.20476-0.05345 0.55627-0.091 0.77693-0.091h0.22307v-0.99018h0.99999v0.99018h0.68461c0.10874 0 0.20982 0.01909 0.31538 0.03245v-1.0226h0.99999v1.3459c0.41524 0.24309 0.7093 0.59818 0.9325 1.0265l0.89279-0.89409 0.67468 0.67518-1.282 1.2829c0.0013 0.03373 0.0064 0.02991 0.0064 0.06364 0 0.01209-5e-3 0.05791-0.0057 0.07l1.2813 1.2765-0.67468 0.67518-0.868-0.86864c-0.22192 0.44864-0.5268 0.82027-0.9573 1.0723v1.2746h-0.99999v-0.95136c-0.10556 0.01336-0.20664 0.03246-0.31538 0.03246h-0.68461v0.9189h-1.0001zm2-3.6113h-0.99999v2.0647h0.99999zm-2 0h-1v2.0647h1z" fill="#62b543" stroke-width="1.0061"/><rect x="1.1921e-7" y="1" width="16" height="3" fill="#73a9d8" fill-rule="evenodd" stroke-width=".92582"/><path transform="translate(13.672 -1.2527)" d="m-13.672 5.2527v11h8c-0.4-0.4-0.61433-0.77711-0.70636-1h-6.2936l-3e-5 -10z" fill="#999"/><path d="m15 4v6l1-1v-5z" fill="#999"/></svg>
