<?xml version="1.0" encoding="UTF-8"?>
<svg width="16" height="16" version="1.1" viewBox="0 0 16 16" xml:space="preserve" xmlns="http://www.w3.org/2000/svg"><g><path transform="rotate(-90 .3 -.7)" d="m-12.4 0h-3v14h3v-1h-1v-12h1z" fill="#3592c4" fill-rule="evenodd" stroke-width="1.633"/><path transform="matrix(0,1,1,0,1,16.4)" d="m-12.4 0h-3v14h3v-1h-1v-12h1z" fill="#3592c4" fill-rule="evenodd" stroke-width="1.633"/><path class="UnoptimicedTransforms" transform="translate(.31602 -.003519)" d="m3.084 4.8035c-0.80547-0.019539-2 0.6-2 1.6s0.4276 1.2372 1 1.6 1.7282 0.8 1.7282 1.4c0 0.6-0.28367 0.68904-0.92818 0.70056-0.64452 0.01152-1.2986-0.29995-1.8-0.70056v1.4195s0.41953 0.325 1.8 0.30547c1.3805-0.01953 2-0.925 2-1.725 0-1.6-1.7795-1.8856-2.4-2.4s-0.27452-1.2036 0.4-1.2c0.55082-0.075589 1.3336 0.080293 1.8 0.4v-1.2c-0.37722-0.18441-1.1885-0.19356-1.6-0.2zm2.2 3.2c-0.099196 1.3939 0.8 3.0938 2.8 3.0938 0.39387 0.02324 1-0.09375 1-0.09375s0.72093 0.6456 1 0.8h1.6l-1.6-1.4c0.8-0.6 1-1.6 1-2.4 0-2.6-1.8641-3.2016-3-3.2-1.1359 0.00164-2.8 0.8-2.8 3.2zm6.4-3.2v6.2h3v-1h-2v-5.2zm-1.6 3.2c0 1.6-1.2098 2.0136-2 2-1.2 0-1.8-0.8-1.8-2s0.77275-2.2 1.8-2.2 2 0.6 2 2.2z" fill="#b1b2b4" stroke-miterlimit="3.4" stroke-width="0"/></g></svg>
