<?xml version="1.0" encoding="UTF-8"?>
<svg width="16" height="16" version="1.1" viewBox="0 0 16 16" xml:space="preserve" xmlns="http://www.w3.org/2000/svg"><path d="m4.5996 6.0996c-2.0997 0.42879-3.6057 2.2788-3.5996 4.4219 0.011839 2.4815 2.0302 4.485 4.5117 4.4785 0.16331-0.003498 0.32632-0.015886 0.48828-0.037109v-5.5625h-1.4004z" fill="#589bc0"/><path d="m5 2v7h2.9453l2.8008-4.4004h0.51562l0.73828 1.207v-3.8066h-7z" fill="#d67876" stroke-miterlimit="0" stroke-width="0"/><path d="m11 5-2.5 4h5l-2.5-4z" fill="#5eba6a"/><g fill="#999"><path d="m7 10v6h9v-6h-9zm1 1h1v4h-1v-4zm2 0h1v4h-1v-4zm2 0h1v4h-1v-4zm2 0h1v4h-1v-4z"/></g></svg>
