<?xml version="1.0" encoding="UTF-8"?>
<svg width="16" height="16" version="1.1" viewBox="0 0 16 16" xml:space="preserve" xmlns="http://www.w3.org/2000/svg"><g transform="matrix(.86667 0 0 .84615 2.1324 -1.6872)"><path d="m4.9989 2.0009v4.7204h4.3968l1.3499-2.1213h0.51608l0.73918 1.2072v-3.8063h-7.002z" fill="#d67876"/><path d="m11 4.9993-1.2305 1.9689v6.0314h6.2312l-5.0008-8.0004z" fill="#5eba6a"/></g><g transform="matrix(.86667 0 0 .84615 -.86381 3.3009)"><path d="m4.5996 6.0996a4.5 4.5 0 0 0-3.5996 4.4219 4.5 4.5 0 0 0 4.5117 4.4785 4.5 4.5 0 0 0 3.4277-1.5996h-3.5391v-0.40039l2.291-3.5996h-3.0918v-3.3008z" fill="#589bc0" stroke-miterlimit="0" stroke-width="0"/><path d="m5 2v7h2.9453l2.8008-4.4004h0.51562l0.73828 1.207v-3.8066z" fill="#d67876" stroke-miterlimit="0" stroke-width="0"/><path d="m11 5-5 8h10z" fill="#5eba6a"/></g></svg>
