<?xml version="1.0" encoding="UTF-8"?>
<svg width="16" height="16" version="1.1" viewBox="0 0 16 16" xml:space="preserve" xmlns="http://www.w3.org/2000/svg"><path transform="scale(.88039 1.1359)" d="m8.1507 5.1861c-0.44862 0-0.88257 0.09079-1.3022 0.27168-0.41967 0.18089-0.80022 0.42962-1.1403 0.74799l0.78312 0.9337c0.26772-0.21707 0.51223-0.37981 0.73653-0.48834 0.23154-0.11577 0.47055-0.17367 0.71657-0.17367 0.29666 0 0.52796 0.079826 0.69438 0.23901 0.16642 0.15919 0.25069 0.3829 0.25069 0.67233 0 0.27496-0.088123 0.57542-0.26178 0.90103-0.17366 0.31837-0.487 0.73943-0.94285 1.2604-0.44862 0.51374-1.1122 1.2116-1.9878 2.0944v0.705h4.7764v-1.238h-2.518c0.66569-0.65845 1.1839-1.2155 1.5529-1.6714 0.36902-0.45585 0.6251-0.85634 0.76981-1.2037 0.14471-0.35455 0.21741-0.70983 0.21741-1.0644 0-0.44138-0.10133-0.8107-0.30393-1.1074-0.2026-0.29666-0.48181-0.5173-0.83636-0.66201-0.34731-0.14471-0.74878-0.21666-1.2046-0.21666zm5.7414 0.010317c-0.89723 0-1.6715 0.31142-2.3227 0.9337l0.76094 0.83568c0.48479-0.39073 0.97602-0.58635 1.4753-0.58635 0.28943 0 0.51137 0.068863 0.66332 0.20634 0.15919 0.13024 0.23738 0.29778 0.23738 0.50038 0 0.23878-0.072696 0.44365-0.21741 0.61731-0.14472 0.17366-0.39308 0.33811-0.74763 0.49006h-0.84746l-0.097612 1.085h0.52134c0.39073 0 0.69472 0.042135 0.91179 0.12896 0.22431 0.079593 0.37519 0.19539 0.45479 0.34734 0.086829 0.14471 0.13089 0.32938 0.13089 0.55368 0 0.31114-0.10904 0.55062-0.32612 0.71704-0.21707 0.16642-0.52492 0.24933-0.92289 0.24933-0.52097 0-1.0083-0.10484-1.4642-0.31467l-0.51025 1.1074c0.24601 0.12301 0.54615 0.22476 0.9007 0.30435 0.36179 0.086829 0.75004 0.12896 1.1625 0.12896 0.62951 0 1.1455-0.10003 1.5507-0.30263s0.69762-0.47017 0.87852-0.80301c0.18089-0.34008 0.27287-0.72037 0.27287-1.14 0-0.41967-0.1129-0.77803-0.33721-1.0747-0.21707-0.29666-0.5497-0.5173-0.99831-0.66201 0.36902-0.15919 0.65759-0.36886 0.86742-0.62934 0.21707-0.26772 0.32612-0.57915 0.32612-0.9337 0-0.34008-0.085904-0.64362-0.25956-0.91134-0.17366-0.26772-0.43359-0.47431-0.7809-0.61902-0.34732-0.15195-0.77578-0.2287-1.2823-0.2287zm-11.982 0.12037-1.9101 1.3464 0.59677 0.846 1.3133-0.61902v4.2214h-1.7149v1.238h4.5146v-1.238h-1.3022v-5.7948h-1.4975z" fill="#59a869" stroke-miterlimit="0" stroke-width="0"/><path transform="scale(.88039 1.1359)" d="m9.9676 1.6301c-0.44861 0-0.88257 0.09079-1.3022 0.27168-0.41967 0.18089-0.798 0.42962-1.1381 0.74799l0.7809 0.9337c0.26772-0.21707 0.51444-0.37981 0.73875-0.48834 0.23154-0.11577 0.46833-0.17367 0.71435-0.17367 0.29666 0 0.53018 0.079827 0.6966 0.23901 0.16642 0.15919 0.24847 0.3829 0.24847 0.67233 0 0.17851-0.040223 0.36925-0.11314 0.56916h1.5995c0.079074-0.26213 0.1198-0.52389 0.1198-0.78582 0-0.44138-0.10133-0.8107-0.30393-1.1074-0.2026-0.29666-0.48181-0.5173-0.83636-0.66201-0.34732-0.14471-0.74878-0.21666-1.2046-0.21666zm5.7414 0.010317c-0.89723 0-1.6715 0.31142-2.3227 0.9337l0.76094 0.83568c0.48479-0.39073 0.97602-0.58635 1.4753-0.58635 0.28943 0 0.51137 0.068863 0.66332 0.20634 0.15919 0.13024 0.23738 0.29778 0.23738 0.50038 0 0.23878-0.070478 0.44365-0.21519 0.61731-0.072793 0.087351-0.17337 0.17265-0.29949 0.25449h1.635c0.020845-0.023278 0.044881-0.04463 0.064336-0.06878 0.21707-0.26772 0.3239-0.57915 0.3239-0.9337 0-0.34008-0.085905-0.64362-0.25956-0.91134-0.17366-0.26772-0.43359-0.47431-0.7809-0.61902-0.34732-0.15195-0.77578-0.2287-1.2823-0.2287zm-11.982 0.12037-1.9101 1.3447 0.59677 0.84772 1.3133-0.61902v1.0678h1.4975v-2.6412h-1.4975z" fill="#59a869" stroke-miterlimit="0" stroke-width="0"/></svg>
