<?xml version="1.0" encoding="UTF-8"?>
<svg width="16" height="16" version="1.1" viewBox="0 0 16 16" xml:space="preserve" xmlns="http://www.w3.org/2000/svg"><path transform="scale(.88039 1.1359)" d="m9.0603 3.4011c-0.44863 0-0.88256 0.090774-1.3022 0.27167s-0.80021 0.42958-1.1403 0.74796l0.7809 0.93366c0.26773-0.21708 0.51444-0.37978 0.73875-0.48832 0.23155-0.11578 0.47054-0.17366 0.71657-0.17366 0.29668 0 0.52796 0.079812 0.69438 0.239 0.16643 0.15919 0.25069 0.38287 0.25069 0.67231 0 0.27497-0.088116 0.57537-0.26178 0.90099-0.17366 0.31838-0.48699 0.73937-0.94285 1.2604-0.44863 0.51376-1.1122 1.2115-1.9878 2.0943v0.70497h4.7764v-1.2363h-2.518c0.66571-0.65848 1.1817-1.2172 1.5507-1.673 0.36904-0.45587 0.62731-0.85629 0.77203-1.2036 0.14472-0.35456 0.21741-0.70978 0.21741-1.0643 0-0.4414-0.10132-0.81065-0.30393-1.1073s-0.4818-0.51727-0.83637-0.66199c-0.34733-0.14472-0.74877-0.21665-1.2046-0.21665zm5.7414 0.010317c-0.89726 0-1.6715 0.31137-2.3227 0.93366l0.76094 0.83565c0.48481-0.39074 0.976-0.58633 1.4753-0.58633 0.28944 0 0.50915 0.06885 0.66111 0.20633 0.15919 0.13025 0.2396 0.29775 0.2396 0.50036 0 0.23879-0.072691 0.44362-0.21741 0.61728s-0.39306 0.33809-0.74763 0.49004h-0.84746l-0.097613 1.085h0.52134c0.39074 0 0.69472 0.043846 0.91179 0.13068 0.22432 0.079596 0.37519 0.19537 0.45479 0.34733 0.086832 0.14472 0.13089 0.32763 0.13089 0.55194 0 0.31115-0.10904 0.55058-0.32612 0.71701-0.21708 0.16643-0.52491 0.24932-0.92289 0.24932-0.52099 0-1.0083-0.10482-1.4642-0.31466l-0.51025 1.1073c0.24602 0.12301 0.54614 0.22475 0.9007 0.30434 0.3618 0.086832 0.74781 0.13068 1.1603 0.13068 0.62953 0 1.1477-0.10174 1.5529-0.30434 0.40522-0.20261 0.69762-0.47013 0.87852-0.80298 0.1809-0.34009 0.27287-0.72031 0.27287-1.14s-0.11289-0.77798-0.33721-1.0747c-0.21708-0.29668-0.54968-0.51727-0.99831-0.66199 0.36904-0.15919 0.65758-0.36882 0.86742-0.62932 0.21708-0.26773 0.32612-0.5791 0.32612-0.93366 0-0.34009-0.085898-0.64358-0.25956-0.91131-0.17366-0.26773-0.43579-0.47428-0.78312-0.619-0.34733-0.15196-0.77354-0.22869-1.2801-0.22869zm-11.982 0.12036-1.9101 1.3446 0.59677 0.84769 1.3133-0.619v4.223h-1.7149v1.2363h4.5146v-1.2363h-1.3022v-5.7963h-1.4975z" fill="#499c54"/></svg>
