<?xml version="1.0" encoding="UTF-8"?>
<svg width="16" height="16" version="1.1" viewBox="0 0 16 16" xml:space="preserve" xmlns="http://www.w3.org/2000/svg"><g transform="translate(18.859 -3.2639)"><path d="m-12.859 8.2639v6h2.6v1l-1.1547 1h6.5547v-8z" fill="#f2f2f2"/><path d="m-17.859 5.2639v9h1v-7h4v1h4v2h-4v1h4v2h-4v1h4v2h-2.5547l-1.0762 1h8.6309v-12zm10 3h3v2h-3zm0 3h3v2h-3zm0 3h3v2h-3z" fill="#afb1b3"/></g><path transform="translate(-21.5)" d="m24.5 5v7h-2l3 3 3-3h-2v-7z" fill="#f26522"/></svg>
