<?xml version="1.0" encoding="UTF-8" standalone="no"?>
<!-- Created with Inkscape (http://www.inkscape.org/) -->

<svg
        width="13"
        height="13"
        viewBox="0 0 13 13"
        version="1.1"
        id="svg5"
        xml:space="preserve"
        sodipodi:docname="Base_dark.svg"
        inkscape:version="1.2.2 (732a01da63, 2022-12-09)"
        xmlns:inkscape="http://www.inkscape.org/namespaces/inkscape"
        xmlns:sodipodi="http://sodipodi.sourceforge.net/DTD/sodipodi-0.dtd"
        xmlns="http://www.w3.org/2000/svg"
><sodipodi:namedview
     id="namedview7"
     pagecolor="#ffffff"
     bordercolor="#000000"
     borderopacity="0.25"
     inkscape:pageshadow="2"
     inkscape:pageopacity="0.0"
     inkscape:pagecheckerboard="0"
     inkscape:deskcolor="#d1d1d1"
     inkscape:document-units="px"
     showgrid="true"
     inkscape:zoom="64"
     inkscape:cx="7.3125"
     inkscape:cy="7.0625"
     inkscape:window-width="2560"
     inkscape:window-height="1377"
     inkscape:window-x="-8"
     inkscape:window-y="-8"
     inkscape:window-maximized="1"
     inkscape:current-layer="svg5"
     inkscape:showpageshadow="2"
     showguides="false"
     inkscape:lockguides="false"><inkscape:grid
       type="xygrid"
       id="grid713"
       originx="0"
       originy="0"
       units="px"
       spacingx="0.2"
       spacingy="0.2" /></sodipodi:namedview><defs
     id="defs2"><linearGradient
       id="linearGradient3813"
       inkscape:swatch="solid"><stop
         style="stop-color:#525aff;stop-opacity:1;"
         offset="0"
         id="stop3811" /></linearGradient></defs><g
     transform="matrix(-0.9,0,0,0.66667,11.7,0.53331)"
     fill="#5f8dd3"
     stroke-width="0.91287"
     id="g13366"
     style="fill:#afb1b3;fill-opacity:1">
        <path
   d="M 13,4.7502 C 13,5.9921 10.7617,7 8,7 5.2383,7 3,5.9921 3,4.7502 3,3.5083 5.2383,2.5004 8,2.5004 c 2.7617,0 5,1.0079 5,2.2498 z"
   stroke-width="1.1179"
   id="path13358"
   style="fill:#afb1b3;fill-opacity:1" />
        <path
   d="m 8,7.900006 c -2.75,0 -5,-1.3 -5,-2.1 v 3.0053 c 0,0.8 2.25,2.0947 5,2.0947 2.75,0 5,-1.2947 5,-2.0947 v -3.0053 c 0,0.8 -2.25,2.1 -5,2.1 z"
   id="path13360"
   style="fill:#afb1b3;fill-opacity:1"
   sodipodi:nodetypes="scssscs" />
        <path
   d="m 8,11.799987 c -2.75,0 -5,-1.3 -5,-2.1000005 v 3.0053005 c 0,0.8 2.25,2.0947 5,2.0947 2.75,0 5,-1.2947 5,-2.0947 V 9.6999865 c 0,0.8000005 -2.25,2.1000005 -5,2.1000005 z"
   id="path13362"
   style="fill:#afb1b3;fill-opacity:1"
   sodipodi:nodetypes="scssscs" />
        <path
   d="m 8,15.694652 c -2.75,0 -5,-1.3 -5,-2.1 v 3.0053 c 0,0.8 2.25,2.0947 5,2.0947 2.75,0 5,-1.2947 5,-2.0947 v -3.0053 c 0,0.8 -2.25,2.1 -5,2.1 z"
   id="path13364"
   style="fill:#afb1b3;fill-opacity:1" />
    </g></svg>
