<?xml version="1.0" encoding="UTF-8"?>
<svg width="13" height="13" version="1.1" viewBox="0 0 13 13" xml:space="preserve" xmlns="http://www.w3.org/2000/svg">
    <g transform="matrix(-.9 0 0 .66667 11.7 .53331)" fill="#6e6e6e" stroke-width=".91287">
        <path d="m13 4.7502c-0.001264 0.51728-0.38673 0.9339-0.78764 1.2123-0.77606 0.52939-1.7055 0.77222-2.6212 0.92454 0.38886-1.381 0.38969-2.8578 0.089099-4.256 0.87382 0.14527 1.7545 0.38901 2.4993 0.884 0.41336 0.28223 0.81946 0.70132 0.82045 1.2351z" stroke-width="1.1179"/>
        <path d="m6.9392 10.837c1.6716 0.19196 3.4184-0.06043 4.9154-0.84743 0.42737-0.24567 0.88732-0.52654 1.1051-0.98852 0.074864-0.24498 0.026614-0.50692 0.040364-0.75997v-2.441c-0.039071 0.41856-0.41213 0.69689-0.72652 0.92913-0.88689 0.60044-1.9375 0.90677-2.9843 1.0825-0.44546 1.2152-1.2466 2.3289-2.35 3.0253z"/>
        <path d="m8 11.8c-0.6875 0-1.3438-0.08125-1.9414-0.21562-0.14941-0.03359-0.29517-0.07051-0.43683-0.1103-0.070831-0.0199-0.10158-0.01708-0.17031-0.03836-0.82054 0.15771-1.5981 0.069676-2.4515-0.33267v1.6023c0 0.8 2.25 2.0947 5 2.0947s5-1.2947 5-2.0947v-3.0053c0 0.8-2.25 2.1-5 2.1z"/>
        <path d="m8 15.695c-2.75 0-5-1.3-5-2.1v3.0053c0 0.8 2.25 2.0947 5 2.0947s5-1.2947 5-2.0947v-3.0053c0 0.8-2.25 2.1-5 2.1z"/>
    </g>
    <g transform="matrix(.74343 0 0 .75546 3.6272 -.37773)" fill="#389fd6" fill-rule="evenodd">
        <rect transform="rotate(-45,9.9,9.697)" x="8.9" y="6.869" width="2" height="5.657"/>
        <path d="m5.25 10c-2.6234 0-4.75-2.1266-4.75-4.75s2.1266-4.75 4.75-4.75 4.75 2.1266 4.75 4.75-2.1266 4.75-4.75 4.75zm0-1.9c1.574 0 2.85-1.276 2.85-2.85s-1.276-2.85-2.85-2.85-2.85 1.276-2.85 2.85 1.276 2.85 2.85 2.85z"/>
    </g>
</svg>
