<?xml version="1.0" encoding="UTF-8"?>
<svg width="13" height="13" version="1.1" viewBox="0 0 13 13" xml:space="preserve" xmlns="http://www.w3.org/2000/svg">
    <g transform="matrix(-.9 0 0 .66667 11.7 .53331)" fill="#6e6e6e" stroke-width=".91287">
        <path d="m13 4.7502c0 0.15524-0.03497 0.30682-0.10157 0.45323-0.0666 0.14641-0.16482 0.28766-0.29132 0.42223s-0.28127 0.26245-0.46096 0.38215-0.38432 0.2312-0.61051 0.333c-0.59797 0.28131-1.2979 0.41192-1.8728 0.53432 0.00381-1.6751 0.00381-3.1751 1e-7 -4.2499 0.076583 0.012623 0.20871 0.037783 0.28349 0.05202 0.5982 0.1139 1.1369 0.27869 1.5893 0.4823 0.90479 0.40721 1.4644 0.96966 1.4644 1.5906z" stroke-width="1.1179"/>
        <path d="m8 7.9c-0.6875 0-1.3438-0.08125-1.9414-0.21562-0.15755 0.71952-0.42156 1.9632-0.61909 2.8224 0.26611 0.08992 0.32026 0.11151 0.61909 0.17845 0.59766 0.13388 1.2539 0.2148 1.9414 0.2148 2.75 0 5-1.2947 5-2.0947v-3.0053c0 0.8-2.25 2.1-5 2.1z"/>
        <path d="m8 11.8c-0.6875 0-1.3438-0.08125-1.9414-0.21562-0.29883-0.06719-0.58301-0.14766-0.84912-0.23789-0.33037 1.3779-0.39691 1.593-0.70389 2.731 0.45312 0.21184 0.95536 0.37382 1.553 0.50769 0.59766 0.13388 1.2539 0.2148 1.9414 0.2148 2.75 0 5-1.2947 5-2.0947v-3.0053c0 0.8-2.25 2.1-5 2.1z"/>
        <path d="m8 15.695c-0.6875 0-1.3438-0.08125-1.9414-0.21562-0.59766-0.13438-1.1367-0.32188-1.5898-0.53438s-0.88108-0.50859-1.135-0.74297c-0.11155-0.00172-0.28467-0.001467-0.33377-0.00172v2.4c0 0.8 2.25 2.0947 5 2.0947s5-1.2947 5-2.0947v-3.0053c0 0.8-2.25 2.1-5 2.1z"/>
    </g>
    <path d="m10 0-1.2 6-0.8-3h-4v2h3.2l1.2 4h1l1.6-7.2 1 2.2h1v-2h-0.4l-1-2z" fill="#ff6015" stroke-width="1.2165"/>
</svg>
