<?xml version="1.0" encoding="UTF-8"?>
<svg width="13" height="13" version="1.1" viewBox="0 0 13 13" xml:space="preserve" xmlns="http://www.w3.org/2000/svg">
    <g transform="matrix(-.9 0 0 .66667 11.7 .53331)" fill="#6e6e6e" stroke-width=".91287">
        <path d="m13 4.7502c0 1.2419-2.2383 2.2498-5 2.2498-0.17261 0-0.39091-0.0039371-0.55901-0.011622 0.00345-2.0884 0.00345-1.7884 0-4.4764 0.1681-0.0076853 0.3864-0.011622 0.55901-0.011622 2.7617 0 5 1.0079 5 2.2498z" stroke-width="1.1179"/>
        <path d="m8 7.9c-0.17188 0-0.38801 0.0097-0.55556-1.05e-5v3c0.16754 0.0097 0.38368 2.1e-5 0.55556 2.1e-5 2.75 0 5-1.2947 5-2.0947v-3.0053c0 0.8-2.25 2.1-5 2.1z"/>
        <path d="m8 11.8c-0.17188 0-0.38801 0.0097-0.55556-1.1e-5v2.4 0.6c0.16754 0.0097 0.38368 2.6e-5 0.55556 2.6e-5 2.75 0 5-1.2947 5-2.0947v-3.0053c0 0.8-2.25 2.1-5 2.1z"/>
        <path d="m8 15.695c-2.75 0-5-1.3-5-2.1v3.0053c0 0.8 2.25 2.0947 5 2.0947s5-1.2947 5-2.0947v-3.0053c0 0.8-2.25 2.1-5 2.1z"/>
    </g>
    <polygon transform="matrix(1 0 0 1.1111 -2 -6.6667)" points="15 10.5 8 15 8 6" fill="#62b543"/>
</svg>
