<?xml version="1.0" encoding="UTF-8"?>
<svg width="16" height="16" version="1.1" viewBox="0 0 16 16" xml:space="preserve" xmlns="http://www.w3.org/2000/svg"><g stroke-miterlimit="0" stroke-width="0"><path d="m7 2c-1.6 0-3.0616 1.3384-3 3v2.5996h-1.4004v1.4004h1.4004v4.5996h-1.4004v1.4004h4.8008v-1.4004h-1.4004v-4.5996h1.4004v-1.4004h-1.4004v-3.1992c0-0.40039 0.4-0.99961 1.1992-1 0.80078-3.906e-4 1.2012 0.6 1.2012 1h1.5488c-0.27218-1.5116-1.3492-2.4004-2.9492-2.4004z" fill="#e5e5e5"/><path d="m11 7c-1 0.53333-2 1.8667-2 4s1 3.4667 2 4v-1.6c-0.75388-0.7178-0.8-1.6-0.8-2.4s0.15749-1.7958 0.8-2.4zm1-6e-7v1.6c0.75771 0.72166 0.8 1.6 0.8 2.4 0 0.92774-0.15878 1.7971-0.8 2.4v1.6c1-0.53334 2-1.8667 2-4s-1-3.4667-2-4z" fill="#f26522"/></g></svg>
