<?xml version="1.0" encoding="UTF-8"?>
<svg width="16" height="16" version="1.1" viewBox="0 0 16 16" xml:space="preserve" xmlns="http://www.w3.org/2000/svg"><path d="m6.8262 2c-1.1106-0.036113-2.2653 0.53919-2.7383 1.5859-0.43136 0.82205-0.35438 1.7606-0.35938 2.6562h-1.1289v1.8438h1.1289v5.9141h2.3281v-5.9141h1.7461c0.079427-0.61458 0.15885-1.2292 0.23828-1.8438h-1.9844c0.022337-0.54222-0.061841-1.0986 0.086418-1.6271 0.14669-0.52753 0.73765-0.74677 1.235-0.6534 0.29203-0.097602 0.80316 0.44211 0.87313 0.046777 0.16952-0.54904 0.33905-1.0981 0.50857-1.6471-0.61094-0.26005-1.2721-0.37018-1.9336-0.36133z" fill="#333" stroke-miterlimit="0" stroke-width="0"/><path d="m10 7c-1 0.53333-2 1.8667-2 4 0 2.1333 1 3.4667 2 4v-1.6c-0.75388-0.7178-0.8-1.6-0.8-2.4s0.15749-1.7958 0.8-2.4zm1-6e-7v1.6c0.75771 0.72166 0.8 1.6 0.8 2.4 0 0.92774-0.15878 1.7971-0.8 2.4v1.6c1-0.53334 2-1.8667 2-4 0-2.1333-1-3.4667-2-4z" fill="#db5860" stroke-miterlimit="0" stroke-width="0"/></svg>
