<?xml version="1.0" encoding="UTF-8"?>
<svg width="16" height="16" version="1.1" viewBox="0 0 16 16" xml:space="preserve" xmlns="http://www.w3.org/2000/svg"><g stroke-miterlimit="0" stroke-width="0"><path d="m7 2c-1.6 0-3.0616 1.3384-3 3v2.5996h-1.4004v1.4004h1.4004v4.5996h-1.4004v1.4004h4.8008v-1.4004h-1.4004v-4.5996h1.4004v-1.4004h-1.4004v-3.1992c0-0.40039 0.4-0.99961 1.1992-1 0.80078-3.906e-4 1.2012 0.6 1.2012 1h1.5488c-0.27218-1.5116-1.3492-2.4004-2.9492-2.4004z"/></g><path d="m16 12.5c0 1.933-1.567 3.5-3.5 3.5s-3.5-1.567-3.5-3.5 1.567-3.5 3.5-3.5 3.5 1.567 3.5 3.5" fill="#e05555"/><path d="m13 14v1h-1v-1zm0-4v3h-1v-3z" fill="#fff"/></svg>
