<?xml version="1.0" encoding="UTF-8"?>
<svg width="16" height="16" version="1.1" viewBox="0 0 16 16" xml:space="preserve" xmlns="http://www.w3.org/2000/svg"><g transform="translate(-2,1.0004)" stroke-miterlimit="0" stroke-width="0"><path d="m6 1.9996c-1.6 0-3.0616 1.3384-3 3v3.6h-0.9996v1.4l0.9996 4e-4 4e-4 3.5996h-1v1.4h4v-1.4h-1l-4e-4 -3.5996 1.0004-4e-4v-1.4h-1.0004v-4.1996c0-0.40039 0.39922-0.99999 1.1992-1 0.8-1e-5 1.2012 0.6 1.2012 1h1.5488c-0.27218-1.5116-1.3492-2.4004-2.9492-2.4004z"/><path d="m9 6.9996c-1 0.53333-2 1.8667-2 4s1 3.4667 2 4v-1.6c-0.75388-0.7178-0.8-1.6-0.8-2.4s0.15749-1.7958 0.8-2.4zm1-6e-7v1.6c0.75771 0.72166 0.8 1.6 0.8 2.4 0 0.92774-0.15878 1.7971-0.8 2.4v1.6c1-0.53334 2-1.8667 2-4s-1-3.4667-2-4z" fill="#f26522"/></g><g transform="translate(4.0008 -3.0004)" stroke-miterlimit="0" stroke-width="0"><path d="m9 6.9996c-1 0.53333-2 1.8667-2 4s1 3.4667 2 4v-1.6c-0.75388-0.7178-0.8-1.6-0.8-2.4s0.15749-1.7958 0.8-2.4zm1-6e-7v1.6c0.75771 0.72166 0.8 1.6 0.8 2.4 0 0.92774-0.15878 1.7971-0.8 2.4v1.6c1-0.53334 2-1.8667 2-4s-1-3.4667-2-4z" fill="#f26522"/></g><path d="m10 0c-1.6 0-3.0616 1.3384-3 3v0.35547c0.64414 0.73039 0.9997 1.6707 1 2.6445 0 0.2 0 0.6-0.12969 1 0 0 0.92969 0.4 1.3297 1h0.8v-1.4h-1v-4.1996c0-0.40039 0.39924-0.99999 1.1992-1 0.8-1e-5 1.2012 0.6 1.2012 1h1.5488c-0.27218-1.5116-1.3492-2.4004-2.9492-2.4004z"/></svg>
