<?xml version="1.0" encoding="UTF-8"?>
<svg width="16" height="16" version="1.1" viewBox="0 0 16 16" xml:space="preserve" xmlns="http://www.w3.org/2000/svg"><g stroke-miterlimit="0" stroke-width="0"><path d="m3.6582 4c-0.96137-0.033351-1.9614 0.49672-2.3691 1.4648-0.37296 0.75811-0.3089 1.6246-0.3125 2.4512h-0.97656v1.7012h0.97656v5.459h2.0156v-5.459h1.5098c0.06901-0.56706 0.13802-1.1341 0.20703-1.7012h-1.7168c0.022327-0.51713-0.063329-1.0525 0.092137-1.5519 0.16161-0.51307 0.72197-0.63914 1.1628-0.5392 0.24448-0.040324 0.63507 0.40215 0.65832-0.02243 0.14221-0.48951 0.28442-0.97902 0.42662-1.4685-0.52893-0.23932-1.1014-0.34155-1.6738-0.33398z" fill="#333"/><path d="m6.4038 8.6154c-0.86538 0.49231-1.7308 1.7231-1.7308 3.6923s0.86538 3.2 1.7308 3.6923v-1.4769c-0.6524-0.66258-0.69231-1.4769-0.69231-2.2154s0.13629-1.6577 0.69231-2.2154zm0.86538-6e-7v1.4769c0.65571 0.66615 0.69231 1.4769 0.69231 2.2154 0 0.85637-0.1374 1.6589-0.69231 2.2154v1.4769c0.86538-0.49231 1.7308-1.7231 1.7308-3.6923s-0.86538-3.2-1.7308-3.6923z" fill="#db5860"/><path d="m10.672 0.0032673c-0.95781-0.035064-1.9248 0.49358-2.3292 1.3785-0.41448 0.78433-0.34747 1.6802-0.35053 2.5355h-0.97656v1.7031h0.97656c0.00362 0.79921 0.00726 1.5984 0.00781 2.3977 1.0062 0.56247 1.6748 1.621 1.9435 2.7239 0.043803 0.19262 0.074008 0.47307 0.061799 0.12284-0.0035-1.7481-0.0022-3.4962 5.17e-4 -5.2444h1.5117l0.20703-1.7031h-1.7188c0.02252-0.51717-0.064031-1.0505 0.09347-1.5519 0.13994-0.46539 0.66839-0.63934 1.1081-0.54531 0.25094-0.063023 0.67535 0.40753 0.70466 0.01568 0.14454-0.49953 0.28908-0.99905 0.43362-1.4986-0.52382-0.23975-1.0994-0.34376-1.6738-0.33398z" fill="#333"/><path d="m13.419 4.6181c-0.86538 0.49231-1.7308 1.7231-1.7308 3.6923 0 1.9692 0.86538 3.2 1.7308 3.6923v-1.4769c-0.65239-0.66258-0.69231-1.4769-0.69231-2.2154s0.13629-1.6577 0.69231-2.2154zm0.86538-6e-7v1.4769c0.65571 0.66615 0.69231 1.4769 0.69231 2.2154 0 0.85637-0.1374 1.6589-0.69231 2.2154v1.4769c0.86538-0.49231 1.7308-1.7231 1.7308-3.6923 0-1.9692-0.86538-3.2-1.7308-3.6923z" fill="#db5860"/></g></svg>
