<?xml version="1.0" encoding="UTF-8" standalone="no"?>
<svg
        width="16"
        height="16"
        version="1.1"
        viewBox="0 0 16 16"
        xml:space="preserve"
        id="svg86739"
        sodipodi:docname="Function.svg"
        inkscape:version="1.2.2 (732a01da63, 2022-12-09)"
        xmlns:inkscape="http://www.inkscape.org/namespaces/inkscape"
        xmlns:sodipodi="http://sodipodi.sourceforge.net/DTD/sodipodi-0.dtd"
        xmlns="http://www.w3.org/2000/svg"
><defs
     id="defs86743" /><sodipodi:namedview
     id="namedview86741"
     pagecolor="#ffffff"
     bordercolor="#000000"
     borderopacity="0.25"
     inkscape:showpageshadow="2"
     inkscape:pageopacity="0.0"
     inkscape:pagecheckerboard="0"
     inkscape:deskcolor="#d1d1d1"
     showgrid="true"
     inkscape:zoom="64"
     inkscape:cx="7.4765625"
     inkscape:cy="7.515625"
     inkscape:window-width="2560"
     inkscape:window-height="1369"
     inkscape:window-x="-8"
     inkscape:window-y="-8"
     inkscape:window-maximized="1"
     inkscape:current-layer="svg86739"><inkscape:grid
       type="xygrid"
       id="grid102329" /></sodipodi:namedview><path
     id="text102277"
     style="font-weight:bold;font-size:17.1767px;font-family:Dubai;-inkscape-font-specification:'Dubai Bold';fill:#000000;fill-opacity:1;stroke:#000000;stroke-width:0;stroke-miterlimit:0;stroke-opacity:0.295337"
     d="M 4,5 C 4,5 4.005,6.1043539 4,7 H 2 v 1 h 2 v 6 H 6 V 8 H 8 V 7 H 6 C 6.0223371,6.457776 6,5 6,5 Z"
     sodipodi:nodetypes="ccccccccccccc" /><path
     id="path103841"
     style="fill:#db5860;fill-opacity:1;stroke:#000000;stroke-width:0;stroke-miterlimit:0;stroke-opacity:0.295337"
     d="M 10,7.0000011 C 9,7.5333338 8,8.8666668 8,11 c 0,2.133333 1,3.466665 2,4 V 13.4 C 9.2461211,12.682205 9.2,11.8 9.2,11 9.2,10.2 9.3574881,9.2041867 10,8.6000002 Z m 1,-6e-7 V 8.6000002 C 11.757706,9.3216632 11.8,10.2 11.8,11 c 0,0.927736 -0.158779,1.7971 -0.8,2.4 V 15 c 1,-0.533335 2,-1.866667 2,-4 0,-2.1333332 -1,-3.4666662 -2,-3.9999995 z"
     sodipodi:nodetypes="czcczccccscczc" /><path
     id="path116787"
     style="fill:#110405;fill-opacity:1;stroke:#000000;stroke-width:0;stroke-miterlimit:0;stroke-opacity:0.295337"
     d="M 7,2 C 5.4,2 3.9383679,3.3384257 4,5 H 6 V 4.4003906 c 0,-0.5522847 0.4477151,-1 1,-1 0.5522849,0 1.0000002,0.4477153 1,1 H 9.9492188 C 9.6770389,2.8887909 8.6,2 7,2 Z"
     sodipodi:nodetypes="cccssccc" /></svg>
