<?xml version="1.0" encoding="UTF-8"?>
<svg width="16" height="16" version="1.1" viewBox="0 0 16 16" xml:space="preserve" xmlns="http://www.w3.org/2000/svg"><g stroke-miterlimit="0" stroke-width="0"><path d="m1.5754 6.5385v2.2h-1.1544v1.1846h1.1544v3.8923h-1.1544v1.1846h3.9579v-1.1846h-1.1544v-3.8923h1.1544v-1.1846h-1.1544v-2.2z"/><path d="m7.0863 8.2154c-0.83789 0.45128-1.6758 1.5795-1.6758 3.3846 0 1.8051 0.83789 2.9333 1.6758 3.3846v-1.3538c-0.63167-0.60736-0.67032-1.3538-0.67032-2.0308s0.13196-1.5195 0.67032-2.0308zm0.83789-6e-7v1.3538c0.63488 0.61064 0.67032 1.3538 0.67032 2.0308 0 0.78501-0.13304 1.5206-0.67032 2.0308v1.3538c0.83789-0.45128 1.6758-1.5795 1.6758-3.3846 0-1.8051-0.83789-2.9333-1.6758-3.3846z" fill="#eb4a4a"/><path d="m4.0491 4.0615c-1.3193 0-2.5245 1.1325-2.4737 2.5385h1.6491v-0.50736c0-0.33879 0.53408-0.84648 0.98947-0.84648 0.45539 0 0.98947 0.50769 0.98947 0.84615l1.2774 3.305e-4c-0.22443-1.279-1.1125-2.0311-2.4318-2.0311z"/><path d="m7.9614 2.4923v2.2l-0.93011-0.0055243s0.56871 0.71322 0.56871 1.1132h0.4v1.2h1.6l0.010526-1.1231h1.1544v-1.1846h-1.1544v-2.2z"/><path d="m13.472 4.1692c-0.8379 0.45128-1.6758 1.5795-1.6758 3.3846 0 1.8051 0.8379 2.9333 1.6758 3.3846v-1.3538c-0.63167-0.60736-0.67032-1.3538-0.67032-2.0308 0-0.67692 0.13196-1.5195 0.67032-2.0308zm0.8379-1e-6v1.3538c0.63488 0.61064 0.67032 1.3538 0.67032 2.0308 0 0.78501-0.13304 1.5206-0.67032 2.0308v1.3538c0.83789-0.45128 1.6758-1.5795 1.6758-3.3846 0-1.8051-0.8379-2.9333-1.6758-3.3846z" fill="#eb4a4a"/><path d="m10.435 0.015385c-1.3193 0-2.5245 1.1325-2.4737 2.5385h1.6491v-0.50736c0-0.33879 0.53408-0.84648 0.98947-0.84648s0.98947 0.50769 0.98947 0.84615l1.2774 3.305e-4c-0.22443-1.279-1.1125-2.0311-2.4318-2.0311z"/></g></svg>
