<?xml version="1.0" encoding="UTF-8"?>
<svg width="16" height="16" version="1.1" viewBox="0 0 16 16" xml:space="preserve" xmlns="http://www.w3.org/2000/svg" xmlns:xlink="http://www.w3.org/1999/xlink"><defs><path id="locked-a" d="m13.5 10c-0.27614 0-0.5 0.3118-0.5 0.69643v2.6071c0 0.38463 0.22386 0.69643 0.5 0.69643s0.5-0.3118 0.5-0.69643v-2.6071c0-0.38463-0.22386-0.69643-0.5-0.69643zm0-1c0.82843 0 1.5 0.67157 1.5 1.5v2.5c0 0.82843-0.67157 1.5-1.5 1.5s-1.5-0.67157-1.5-1.5v-2.5c0-0.82843 0.67157-1.5 1.5-1.5z"/></defs><g fill="#b2b2b2" fill-rule="evenodd"><rect x="11" y="12" width="5" height="4"/><use xlink:href="#locked-a"/></g><path transform="translate(13.235 -.352)" d="m-5.2347 9.352c2.1119 0 4-1.792 4-4s-1.8881-4-4-4-4 1.792-4 4 1.8881 4 4 4z" fill="#999" stroke-width="1.9737"/><path d="m4.0957 8.1152c-1.2468 0.7655-2.0957 1.8299-2.0957 2.8848v4h8v-4h1v-1.5c0-0.21691 0.04612-0.42304 0.12891-0.60938a5 5 0 0 1-3.1289 1.1094 5 5 0 0 1-3.9043-1.8848zm7.8086 0a5 5 0 0 1-0.01172 0.011719c0.0059-0.00262 0.01164-0.00527 0.01758-0.00781-2e-3 -0.00122-0.0039-0.00268-0.0059-0.00391z" fill="#b2b2b2"/></svg>
