<?xml version="1.0" encoding="UTF-8"?>
<svg width="16" height="16" version="1.1" viewBox="0 0 16 16" xml:space="preserve" xmlns="http://www.w3.org/2000/svg"><g fill="#999" fill-rule="evenodd"><rect x="11" y="12" width="5" height="4"/><path d="m13.5 10c-0.27614 0-0.5 0.3118-0.5 0.69643v2.6071c0 0.38463 0.22386 0.69643 0.5 0.69643s0.5-0.3118 0.5-0.69643v-2.6071c0-0.38463-0.22386-0.69643-0.5-0.69643zm0-1c0.82843 0 1.5 0.67157 1.5 1.5v2.5c0 0.82843-0.67157 1.5-1.5 1.5s-1.5-0.67157-1.5-1.5v-2.5c0-0.82843 0.67157-1.5 1.5-1.5z"/></g><path transform="translate(13.235 -.352)" d="m-9.1393 8.4672c-1.2468 0.7655-2.0957 1.8299-2.0957 2.8848v4h8v-4h1v-1.5c0-0.21691 0.046124-0.42304 0.12891-0.60938a5 5 0 0 1-3.1289 1.1094 5 5 0 0 1-3.9043-1.8848zm7.8086 0a5 5 0 0 1-0.011719 0.011719c0.0058997-0.002616 0.011639-0.0052709 0.017578-0.0078125-0.0019884-0.0012235-0.0038691-0.0026843-0.0058594-0.0039062z" fill="#b2b2b2"/><path transform="translate(13.235 -.352)" d="m-5.2347 9.352c2.1119 0 4-1.792 4-4s-1.8881-4-4-4-4 1.792-4 4 1.8881 4 4 4z" fill="#999" stroke-width="1.9737"/></svg>
