<?xml version="1.0" encoding="UTF-8"?>
<svg width="16" height="16" version="1.1" viewBox="0 0 16 16" xml:space="preserve" xmlns="http://www.w3.org/2000/svg"><path transform="translate(13.235 -.352)" d="m-7.2347 10.352c2.1119 0 4-1.792 4-4s-1.8881-4-4-4-4 1.792-4 4 1.8881 4 4 4z" fill="#eda200" stroke-width="1.9737"/><path transform="translate(13.235 -.352)" d="m-2.5997 8.2707c0.25374-0.053312 0.64395-0.13194 0.88094-0.23319 0.47399-0.2025 0.908-0.4955 1.276-0.8575 0.73602-0.724 1.2081-1.724 1.2081-2.828 0-2.208-1.8881-4-4-4-1.0559 0-2.0559 0.448-2.7919 1.172 3.9919 1.028 4.2487 4.228 3.4269 6.7467z" fill="#eda200" stroke-width="1.9737"/><path d="m2.0999 9.1133c-1.2488 0.76567-2.0996 1.8309-2.0996 2.8867v4h12v-4c0-1.0559-0.85078-2.1211-2.0996-2.8867a5 5 0 0 1-3.9004 1.8867 5 5 0 0 1-3.9004-1.8867z" fill="#5f8dd3"/><path d="m13.9 7.1137a5 5 0 0 1-2.6133 1.7148c0.3324 0.24234 0.61063 0.48632 0.83789 0.72266 0.625 0.65 0.875 1.2484 0.875 1.6484v2.8008h3v-4c0-0.99121-0.75-1.9919-1.875-2.7441-0.0734-0.049078-0.14812-0.095682-0.22461-0.14258z" fill="#5f8dd3"/></svg>
