<?xml version="1.0" encoding="UTF-8"?>
<svg width="16" height="16" version="1.1" viewBox="0 0 16 16" xml:space="preserve" xmlns="http://www.w3.org/2000/svg"><path d="m6 0v4.5c0.50547-0.033594 0.93438-0.1279 1.4-0.3v-1.2h3.6v5.8008c0.7 0 1.4-0.40117 2-1.2012l1 0.80078c-0.90111 1.1014-1.9526 1.6518-3.0039 1.6504 0.003906 0.74922 0.003906 1.3492 0.003906 1.9492 3.3084 0 5-1.7766 5-5.1992v-6.8008c-3 2-7 2-10 0zm6 3h2.4v1.4l-2.4 3.906e-4z" fill="#499c54" stroke-width=".049828"/><path d="m0 10.8c0 3.4226 1.6916 5.2 5 5.2 3.3084 0 5-1.7774 5-5.2v-6.8c-3 2-7 2-10 0zm8.4-3.8v1.4h-2.4v-1.4zm-1.4 4.6 1 0.8c-1.8 2.2-4.2 2.2-6 0l1-0.8c1.2 1.6 2.8 1.6 4 0zm-5.6-4.6h2.6v1.4h-2.6z" fill="#499c54" stroke-width=".049828"/></svg>
