<?xml version="1.0" encoding="UTF-8"?>
<svg width="16" height="16" version="1.1" viewBox="0 0 16 16" xml:space="preserve" xmlns="http://www.w3.org/2000/svg"><path d="m1 6v8h4v-2.4004h4.5664a3.5 3.5 0 0 1 2.9336-1.5996 3.5 3.5 0 0 1 0.5 0.03711v-4.0371z" fill="#fff"/><path d="m0 3v12h6.2l-1.2-1v-2.4004h4.5723c0.13889-0.21709 0.30133-0.41818 0.48438-0.59961h-0.056641v-2h3v1.0371c0.3466 0.05031 0.68369 0.15236 1 0.30274v-7.3398zm1 3h3v2h-3zm4 0h4v2h-4zm5 0h3v2h-3zm-9 3h3v2h-3zm4 0h4v2h-4zm-4 3h3v2h-3z" fill="#afb1b3"/><g transform="matrix(0 -1 -1 0 24.274 9.1489)" fill="#dcb519"><path d="m-4.3502 9.2739c1.3806 3.58e-5 2.4998 1.1184 2.5 2.4988 5.057e-4 1.3809-1.1189 2.5011-2.5 2.5012-1.3811-3.5e-5 -2.5005-1.1203-2.5-2.5012 2.027e-4 -1.3804 1.1194-2.4988 2.5-2.4988zm0 1.2656c-0.34518 0-0.625 0.27982-0.625 0.625s0.27982 0.625 0.625 0.625 0.625-0.27982 0.625-0.625-0.27982-0.625-0.625-0.625z" stroke-width=".625"/><path d="m-3.4502 13.074v5.198h-0.9l-0.9-0.99798v-0.6l0.4-0.4v-1l-0.4-0.4v-1.8z" stroke-width=".59718"/></g><path d="m2 0v2h13v9h1v-11z" fill="#afb1b3"/></svg>
