<?xml version="1.0" encoding="UTF-8"?>
<svg width="16" height="16" version="1.1" viewBox="0 0 16 16" xml:space="preserve" xmlns="http://www.w3.org/2000/svg"><path transform="translate(18.805 -2.1102)" d="m-16.805 7.1102h12v8h-12z" fill="#fff" stroke-width=".8165"/><g><path d="m2 5v8h6.0391a4.5 4.5 0 0 1-0.039062-0.5 4.5 4.5 0 0 1 4.5-4.5 4.5 4.5 0 0 1 1.5 0.25781v-3.2578h-12z" fill="#fff"/><path d="m1 4v10h7.2656a4.5 4.5 0 0 1-0.22656-1h-2.0391v-2h2.2676a4.5 4.5 0 0 1 0.50391-1h-2.7715v-2h3v1.6914a4.5 4.5 0 0 1 1-0.91797v-0.77344h3v0.029297a4.5 4.5 0 0 1 1 0.23047v-4.2598h-13zm1 1h3v2h-3v-2zm4 0h3v2h-3v-2zm4 0h3v2h-3v-2zm-8 3h3v2h-3v-2zm0 3h3v2h-3v-2z" fill="#b1b2b4"/><path d="m2 2v2h12v4.2578a4.5 4.5 0 0 1 1 0.50195v-6.7598h-13z" fill="#73a9d8"/></g><g transform="translate(0 .0012658)" fill-rule="evenodd">
        
        <path d="m13 14v1h-1v-1zm0-4v3h-1v-3z" fill="#fff"/>
    </g><g fill-rule="evenodd">
        <path d="m16 12.5c0 1.933-1.567 3.5-3.5 3.5s-3.5-1.567-3.5-3.5 1.567-3.5 3.5-3.5 3.5 1.567 3.5 3.5" fill="#e05555"/>
        <path d="m13 14v1h-1v-1zm0-4v3h-1v-3z" fill="#fff"/>
    </g></svg>
