<?xml version="1.0" encoding="UTF-8"?>
<svg width="16" height="16" version="1.1" viewBox="0 0 16 16" xml:space="preserve" xmlns="http://www.w3.org/2000/svg"><path d="m1 7h11v8h-11z" fill="#fff" stroke-width=".8165"/><g transform="translate(-1,2)"><path d="m2 5 12-3e-7 3e-6 8h-12z" fill="#f2f2f2" stroke-width=".8165"/><path d="m1 4v10h13v-10zm1 1 3-4e-7v2l-3 4e-7zm4-4e-7 3 1e-7v2l-3-1e-7zm4 1e-7 3 2e-7v2l-3-2e-7zm-8 3h3l1e-6 2h-3zm4 0h3v2h-3zm4 0h3v2h-3zm-8 3h3v2h-3zm4 0h3v2h-3zm4 0h3v2h-3z" fill="#b1b2b4"/></g><g stroke-miterlimit="0" stroke-width="0"><path d="m1 4v2h12v9h1v-11z" fill="#73a9d8"/><path d="m3 0v2h12v9h1v-11z" fill="#73a9d8"/><rect x="2" y="2" width="13" height="1" fill="#b1b2b4"/></g></svg>
