<?xml version="1.0" encoding="UTF-8"?>
<svg width="16" height="16" version="1.1" viewBox="0 0 16 16" xml:space="preserve" xmlns="http://www.w3.org/2000/svg"><g transform="matrix(-.9 0 0 .66667 12.7 2.5333)" fill="#a1a3a6" stroke-width=".91287">
        <path d="m13 4.7502c0 0.31048-0.13989 0.60632-0.39289 0.87546s-0.61908 0.51155-1.0715 0.71515c-0.45239 0.20361-0.99109 0.3684-1.5893 0.4823-0.2991 0.056948-0.61308 0.10117-0.93859 0.13116-0.16275 0.014993-0.5173 0.045734-0.5173 0.045734l1.1762-1.8v-1.5h-3.3333c0-0.3 0-0.6-5.283e-4 -1.0747 0.56009-0.09366 1.1548-0.10373 1.6672-0.12487 2.7617 0 5 1.0079 5 2.2498z" stroke-width="1.1179"/>
        <path d="m7.8889 7.9c-1.0443 1.6266 0.01302 0-1.8043 2.7676 0.59766 0.13388 1.2279 0.23238 1.9154 0.23238 2.75 0 5-1.2947 5-2.0947v-3.0053c0 0.8-2.3611 2.1-5.1111 2.1z"/>
        <path d="m8 11.8c-0.6875 0-1.3438-0.08125-1.9414-0.21562-0.14941-0.03359-0.49759-0.12788-0.49759-0.12788l-1.5556 2.3546s0.3198 0.16628 0.46339 0.24153c0.90625 0.42368 2.1562 0.74735 3.5312 0.74735 2.75 0 5-1.2947 5-2.0947v-3.0053c0 0.8-2.25 2.1-5 2.1z"/>
        <path d="m8 15.695c-1.375 0-2.625-0.325-3.5312-0.75-0.22656-0.10625-0.43164-0.21875-0.61182-0.33398-0.090088-0.057618-0.25116-0.15789-0.25116-0.15789l-0.60577 0.92232v1.2249c0 0.8 2.25 2.0947 5 2.0947s5-1.2947 5-2.0947v-3.0053c0 0.8-2.25 2.1-5 2.1z"/>
    </g><g transform="translate(-48.587 -53.636)" fill="#62b543" fill-rule="evenodd"><rect transform="matrix(0,-1,-1,0,0,0)" x="-60.636" y="-61.587" width="6.018" height="5" stroke-width="1.1695"/><polygon transform="matrix(1.1003 0 0 -1.2005 56.334 68.637)" points="-2.5 7.5 2.5 2.5 7.5 7.5"/></g></svg>
