<?xml version="1.0" encoding="UTF-8"?>
<svg width="16" height="16" version="1.1" viewBox="0 0 16 16" xml:space="preserve" xmlns="http://www.w3.org/2000/svg">
    <g transform="matrix(-.9 0 0 .66667 12.7 2.5333)" fill="#8f8f8f" stroke-width=".91287">
        <path d="m13 4.7502c0 0.62095-0.55958 1.1834-1.4644 1.5906-0.69157 0.29716-1.2286 0.39203-1.8728 0.54018 0.00381-0.78099 0.00387-1.081 0.00387-1.081l-2.2395-3.3c2.7617 0 5.5728 1.0082 5.5728 2.2501z" stroke-width="1.1179"/>
        <path d="m8 7.9c-0.60058 0.017528-1.1158-0.08846-1.6668-0.16778 1.822e-4 0.76777 1.822e-4 2.2678 0 3.0007 0.56676 0.12589 1.1431 0.13669 1.6668 0.16712 2.75 0 5-1.2947 5-2.0947v-3.0053c0 0.8-2.25 2.1-5 2.1z"/>
        <path d="m8 11.8c-0.58919 0.0152-1.1187-0.08116-1.6716-0.15949 0.00496 0.75948 0.00496 1.6595 0.00478 3.0041 0.55877 0.11579 1.1541 0.12878 1.6668 0.1554 2.75 0 5-1.2947 5-2.0947v-3.0053c0 0.8-2.25 2.1-5 2.1z"/>
        <path d="m8 15.695c-3 5e-3 -5 5e-3 -5 5e-3v0.9003c0 0.8 2.25 2.0947 5 2.0947s5-1.2947 5-2.0947v-3.0053c0 0.8-2.25 2.1-5 2.1z"/>
    </g>
    <g transform="translate(-47.587 -53.638)" fill="#f26522" fill-rule="evenodd">
        <rect transform="rotate(90)" x="60.147" y="-60.587" width="5.4906" height="5" stroke-width="1.0113"/>
        <polygon transform="matrix(1.1 0 0 1.1996 55.337 51.639)" points="2.5 2.5 7.5 7.5 -2.5 7.5"/>
    </g>
</svg>
